<?xml version="1.0" encoding="utf-8"?>
<!-- Generator: Adobe Illustrator 27.6.1, SVG Export Plug-In . SVG Version: 6.00 Build 0)  -->
<svg version="1.1" id="Layer_1" xmlns="http://www.w3.org/2000/svg"
	xmlns:xlink="http://www.w3.org/1999/xlink" x="0px" y="0px"
	viewBox="0 0 900 600" style="enable-background:new 0 0 900 600;" xml:space="preserve">
<style type="text/css">

	.st0{clip-path:url(#SVGID_00000018212300035215389280000016465302636726738073_);}
	.st1{opacity:0.5;}
	.st2{fill:#F20530;}
	.st3{opacity:0.6;}
	.st4{fill:none;stroke:#A60321;stroke-width:1.1388;stroke-miterlimit:10;}
	.st5{fill:none;stroke:#A60321;stroke-width:1.6344;stroke-miterlimit:10;}
	.st6{fill:none;stroke:#A60321;stroke-width:1.1148;stroke-miterlimit:10;}
	.st7{fill:none;stroke:#A60321;stroke-width:1.3041;stroke-miterlimit:10;}
	.st8{fill:none;stroke:#A60321;stroke-width:1.0654;stroke-miterlimit:10;}
	.st9{fill:none;stroke:#A60321;stroke-width:1.7904;stroke-miterlimit:10;}
	.st10{opacity:0.8;}
	.st11{fill:none;stroke:#F20530;stroke-width:3.5673;stroke-miterlimit:10;}
	.st12{fill:none;stroke:#F20530;stroke-width:2.0159;stroke-miterlimit:10;}
	.st13{fill:none;stroke:#F20530;stroke-width:2.5796;stroke-miterlimit:10;}
	.st14{fill:none;stroke:#F20530;stroke-width:1.8086;stroke-miterlimit:10;}
	.st15{fill:none;stroke:#F20530;stroke-width:1.8278;stroke-miterlimit:10;}
	.st16{fill:none;stroke:#F20530;stroke-width:2.1915;stroke-miterlimit:10;}
	.st17{opacity:0.3;}
	.st18{fill:none;stroke:#F20530;stroke-width:1.0279;stroke-miterlimit:10;}
	.st19{fill:none;stroke:#F20530;stroke-width:1.1148;stroke-miterlimit:10;}
	.st20{fill:none;stroke:#A60321;stroke-width:1.4785;stroke-miterlimit:10;}
	.st21{fill:none;stroke:#A60321;stroke-width:1.3994;stroke-miterlimit:10;}
	.st22{fill:none;stroke:#A60321;stroke-width:1.5451;stroke-miterlimit:10;}
	.st23{fill:none;stroke:#A60321;stroke-width:1.6072;stroke-miterlimit:10;}
	.st24{fill:none;stroke:#A60321;stroke-width:1.7974;stroke-miterlimit:10;}
	.st25{fill:none;stroke:#F20530;stroke-width:1.0025;stroke-miterlimit:10;}
	.st26{fill:none;stroke:#F20530;stroke-width:0.8781;stroke-miterlimit:10;}
	.st27{fill:none;stroke:#F20530;stroke-width:1.6072;stroke-miterlimit:10;}
	.st28{fill:none;stroke:#F20530;stroke-width:1.1325;stroke-miterlimit:10;}
	.st29{fill:none;stroke:#F20530;stroke-width:0.8405;stroke-miterlimit:10;}
	.st30{fill:none;stroke:#F20530;stroke-width:1.0108;stroke-miterlimit:10;}
	.st31{fill:none;stroke:#F20530;stroke-width:1.04;stroke-miterlimit:10;}
	.st32{fill:none;stroke:#F20530;stroke-width:1.0477;stroke-miterlimit:10;}
	.st33{fill:none;stroke:#F20530;stroke-width:2.3631;stroke-miterlimit:10;}
	.st34{fill:none;stroke:#F20530;stroke-width:2.3457;stroke-miterlimit:10;}
	.st35{fill:none;stroke:#F20530;stroke-width:2.7556;stroke-miterlimit:10;}
	.st36{fill:none;stroke:#F20530;stroke-width:1.8113;stroke-miterlimit:10;}
	.st37{fill:none;stroke:#F20530;stroke-width:1.7606;stroke-miterlimit:10;}
	.st38{fill:none;stroke:#F20530;stroke-width:2.155;stroke-miterlimit:10;}

	 @keyframes spin {
      0% {
        transform: rotate(0deg);
      }
      100% {
        transform: rotate(360deg);
      }
    }

    .st4, .st5, .st6, .st7, .st8, .st9, .st10, .st11, .st12, .st13, .st14, .st15, .st16, .st17, .st18, .st19, .st20, .st21, .st22, .st23, .st24, .st25, .st26, .st27, .st28, .st29, .st30, .st31, .st32, .st33, .st34, .st35, .st36, .st37, .st38 {
      animation: spin 60s linear infinite;
      transform-origin: center;
    }

	 @keyframes opacityAnimation {
      0% {
        opacity: 1;
      }
      50% {
        opacity: 0.5;
      }
      100% {
        opacity: 1;
      }
    }

	path {
      animation: opacityAnimation 5s ease-in-out infinite;
    }	
</style> 

<g>
	<g>
		<defs>
			<rect id="SVGID_1_" width="900" height="600"/>
		</defs>
		
			
		<use xlink:href="#SVGID_1_"  style="overflow:visible;fill:url(#SVGID_00000052068375802279356910000013738807390137665422_);"/>
		<clipPath id="SVGID_00000097468394713077557590000006123100759479512230_">
			<use xlink:href="#SVGID_1_"  style="overflow:visible;"/>
		</clipPath>
		<g style="clip-path:url(#SVGID_00000097468394713077557590000006123100759479512230_);">
			<g class="st1">
				<g>
					<g>
						<path class="st2" d="M354.82,428.82c1.52,0.9,2.02,2.85,1.13,4.37c-0.9,1.52-2.85,2.02-4.37,1.13
							c-1.52-0.9-2.02-2.85-1.13-4.37C351.35,428.43,353.3,427.93,354.82,428.82z"/>
					</g>
					<g>
						<path class="st2" d="M355.26,545.53c-0.02,1.76-1.46,3.18-3.22,3.16c-1.76-0.02-3.18-1.46-3.16-3.22
							c0.02-1.76,1.46-3.18,3.22-3.16C353.86,542.33,355.28,543.77,355.26,545.53z"/>
					</g>
					<g>
						<path class="st2" d="M254.4,604.27c-1.54,0.87-3.48,0.32-4.35-1.21c-0.87-1.54-0.32-3.48,1.21-4.35
							c1.54-0.87,3.48-0.32,4.35,1.21C256.48,601.45,255.94,603.4,254.4,604.27z"/>
					</g>
					<g>
						<path class="st2" d="M153.11,546.29c-1.52-0.9-2.02-2.85-1.13-4.37c0.9-1.52,2.85-2.02,4.37-1.13
							c1.52,0.9,2.02,2.85,1.13,4.37C156.59,546.68,154.63,547.19,153.11,546.29z"/>
					</g>
					<g>
						<path class="st2" d="M152.67,429.58c0.02-1.76,1.46-3.18,3.22-3.16c1.76,0.02,3.18,1.46,3.16,3.22
							c-0.02,1.76-1.46,3.18-3.22,3.16C154.07,432.79,152.66,431.34,152.67,429.58z"/>
					</g>
					<g>
						<path class="st2" d="M253.53,370.85c1.54-0.87,3.48-0.32,4.35,1.21c0.87,1.54,0.32,3.48-1.21,4.35s-3.48,0.32-4.35-1.21
							C251.45,373.66,251.99,371.71,253.53,370.85z"/>
					</g>
				</g>
				<g>
					<g>
						<path class="st2" d="M339.51,388.55c1.25,0.74,1.67,2.35,0.93,3.6c-0.74,1.25-2.35,1.67-3.6,0.93
							c-1.25-0.74-1.67-2.35-0.93-3.6C336.65,388.23,338.26,387.82,339.51,388.55z"/>
					</g>
					<g>
						<path class="st2" d="M339.87,484.68c-0.01,1.45-1.2,2.62-2.66,2.6c-1.45-0.01-2.62-1.2-2.6-2.66c0.01-1.45,1.2-2.62,2.66-2.6
							C338.72,482.04,339.89,483.23,339.87,484.68z"/>
					</g>
					<g>
						<path class="st2" d="M256.8,533.06c-1.26,0.71-2.87,0.27-3.58-1c-0.71-1.26-0.27-2.87,1-3.58c1.26-0.71,2.87-0.27,3.58,1
							C258.51,530.74,258.07,532.35,256.8,533.06z"/>
					</g>
					<g>
						<path class="st2" d="M173.37,485.31c-1.25-0.74-1.67-2.35-0.93-3.6c0.74-1.25,2.35-1.67,3.6-0.93
							c1.25,0.74,1.67,2.35,0.93,3.6S174.62,486.05,173.37,485.31z"/>
					</g>
					<g>
						<path class="st2" d="M173.01,389.18c0.01-1.45,1.2-2.62,2.66-2.6c1.45,0.01,2.62,1.2,2.6,2.66c-0.01,1.45-1.2,2.62-2.66,2.6
							C174.16,391.82,173,390.63,173.01,389.18z"/>
					</g>
					<g>
						<path class="st2" d="M256.08,340.8c1.26-0.71,2.87-0.27,3.58,1c0.71,1.26,0.27,2.87-1,3.58c-1.26,0.71-2.87,0.27-3.58-1
							C254.37,343.12,254.82,341.52,256.08,340.8z"/>
					</g>
				</g>
				<g>
					<g>
						<path class="st2" d="M488.14,314.87c0.76,0.45,1.01,1.43,0.56,2.18c-0.45,0.76-1.43,1.01-2.18,0.56
							c-0.76-0.45-1.01-1.43-0.56-2.18C486.41,314.67,487.38,314.42,488.14,314.87z"/>
					</g>
					<g>
						<path class="st2" d="M488.36,373.16c-0.01,0.88-0.73,1.59-1.61,1.58c-0.88-0.01-1.59-0.73-1.58-1.61
							c0.01-0.88,0.73-1.59,1.61-1.58C487.66,371.56,488.37,372.28,488.36,373.16z"/>
					</g>
					<g>
						<path class="st2" d="M437.99,402.49c-0.77,0.43-1.74,0.16-2.17-0.61c-0.43-0.77-0.16-1.74,0.61-2.17
							c0.77-0.43,1.74-0.16,2.17,0.61C439.03,401.09,438.76,402.06,437.99,402.49z"/>
					</g>
					<g>
						<path class="st2" d="M387.4,373.53c-0.76-0.45-1.01-1.43-0.56-2.18c0.45-0.76,1.43-1.01,2.18-0.56
							c0.76,0.45,1.01,1.43,0.56,2.18C389.13,373.73,388.16,373.98,387.4,373.53z"/>
					</g>
					<g>
						<path class="st2" d="M387.18,315.24c0.01-0.88,0.73-1.59,1.61-1.58c0.88,0.01,1.59,0.73,1.58,1.61
							c-0.01,0.88-0.73,1.59-1.61,1.58C387.88,316.85,387.17,316.12,387.18,315.24z"/>
					</g>
					<g>
						<path class="st2" d="M437.55,285.91c0.77-0.43,1.74-0.16,2.17,0.61c0.43,0.77,0.16,1.74-0.61,2.17
							c-0.77,0.43-1.74,0.16-2.17-0.61C436.51,287.32,436.79,286.34,437.55,285.91z"/>
					</g>
				</g>
				<g>
					<g>
						<path class="st2" d="M90.78,160.99c1.08,0.64,1.44,2.03,0.8,3.11c-0.64,1.08-2.03,1.44-3.11,0.8
							c-1.08-0.64-1.44-2.03-0.8-3.11C88.31,160.71,89.7,160.35,90.78,160.99z"/>
					</g>
					<g>
						<path class="st2" d="M91.09,243.98c-0.01,1.25-1.04,2.26-2.29,2.25c-1.25-0.01-2.26-1.04-2.25-2.29
							c0.01-1.25,1.04-2.26,2.29-2.25C90.1,241.7,91.11,242.73,91.09,243.98z"/>
					</g>
					<g>
						<path class="st2" d="M19.37,285.75c-1.09,0.62-2.48,0.23-3.09-0.86c-0.62-1.09-0.23-2.48,0.86-3.09
							c1.09-0.62,2.48-0.23,3.09,0.86C20.85,283.75,20.47,285.13,19.37,285.75z"/>
					</g>
					<g>
						<path class="st2" d="M-52.66,244.52c-1.08-0.64-1.44-2.03-0.8-3.11c0.64-1.08,2.03-1.44,3.11-0.8
							c1.08,0.64,1.44,2.03,0.8,3.11C-50.19,244.8-51.58,245.16-52.66,244.52z"/>
					</g>
					<g>
						<path class="st2" d="M-52.97,161.53c0.01-1.25,1.04-2.26,2.29-2.25c1.25,0.01,2.26,1.04,2.25,2.29
							c-0.01,1.25-1.04,2.26-2.29,2.25C-51.97,163.81-52.98,162.78-52.97,161.53z"/>
					</g>
					<g>
						<path class="st2" d="M18.75,119.76c1.09-0.62,2.48-0.23,3.09,0.86c0.62,1.09,0.23,2.48-0.86,3.09
							c-1.09,0.62-2.48,0.23-3.09-0.86C17.27,121.76,17.66,120.38,18.75,119.76z"/>
					</g>
				</g>
				<g>
					<g>
						<path class="st2" d="M497.38,457.48c0.83,0.49,1.1,1.56,0.61,2.39c-0.49,0.83-1.56,1.1-2.39,0.61
							c-0.83-0.49-1.1-1.56-0.61-2.39C495.48,457.26,496.55,456.99,497.38,457.48z"/>
					</g>
					<g>
						<path class="st2" d="M497.61,521.22c-0.01,0.96-0.8,1.74-1.76,1.73c-0.96-0.01-1.74-0.8-1.73-1.76
							c0.01-0.96,0.8-1.74,1.76-1.73C496.85,519.47,497.62,520.26,497.61,521.22z"/>
					</g>
					<g>
						<path class="st2" d="M442.53,553.3c-0.84,0.47-1.9,0.18-2.38-0.66c-0.47-0.84-0.18-1.9,0.66-2.38
							c0.84-0.47,1.9-0.18,2.38,0.66C443.66,551.76,443.37,552.83,442.53,553.3z"/>
					</g>
					<g>
						<path class="st2" d="M387.21,521.64c-0.83-0.49-1.1-1.56-0.61-2.39c0.49-0.83,1.56-1.1,2.39-0.61
							c0.83,0.49,1.1,1.56,0.61,2.39C389.1,521.85,388.03,522.13,387.21,521.64z"/>
					</g>
					<g>
						<path class="st2" d="M386.97,457.89c0.01-0.96,0.8-1.74,1.76-1.73c0.96,0.01,1.74,0.8,1.73,1.76
							c-0.01,0.96-0.8,1.74-1.76,1.73C387.73,459.64,386.96,458.86,386.97,457.89z"/>
					</g>
					<g>
						<path class="st2" d="M442.05,425.81c0.84-0.47,1.9-0.18,2.38,0.66c0.47,0.84,0.18,1.9-0.66,2.38
							c-0.84,0.47-1.9,0.18-2.38-0.66C440.92,427.35,441.21,426.29,442.05,425.81z"/>
					</g>
				</g>
				<g>
					<g>
						<path class="st2" d="M231.25,399.99c1.39,1.66,1.18,4.13-0.48,5.52c-1.66,1.39-4.13,1.18-5.52-0.48
							c-1.39-1.66-1.18-4.13,0.48-5.52C227.38,398.12,229.86,398.34,231.25,399.99z"/>
					</g>
					<g>
						<path class="st2" d="M184.24,535.38c-0.74,2.04-2.99,3.09-5.02,2.35c-2.04-0.74-3.09-2.99-2.35-5.02
							c0.74-2.04,2.99-3.09,5.02-2.35C183.92,531.1,184.97,533.35,184.24,535.38z"/>
					</g>
					<g>
						<path class="st2" d="M43.48,562.36c-2.13,0.38-4.17-1.04-4.55-3.18c-0.38-2.13,1.04-4.17,3.17-4.55
							c2.13-0.38,4.17,1.04,4.55,3.17C47.03,559.94,45.61,561.98,43.48,562.36z"/>
					</g>
					<g>
						<path class="st2" d="M-50.26,453.95c-1.39-1.66-1.18-4.13,0.48-5.52c1.66-1.39,4.13-1.18,5.52,0.48
							c1.39,1.66,1.18,4.13-0.48,5.52C-46.39,455.82-48.87,455.61-50.26,453.95z"/>
					</g>
					<g>
						<path class="st2" d="M-3.25,318.56c0.74-2.04,2.99-3.09,5.02-2.35c2.04,0.74,3.09,2.99,2.35,5.02
							c-0.74,2.04-2.99,3.09-5.02,2.35C-2.93,322.85-3.98,320.6-3.25,318.56z"/>
					</g>
					<g>
						<path class="st2" d="M137.51,291.58c2.13-0.38,4.17,1.04,4.55,3.17c0.38,2.13-1.04,4.17-3.17,4.55
							c-2.13,0.38-4.17-1.04-4.55-3.17C133.96,294,135.38,291.96,137.51,291.58z"/>
					</g>
				</g>
				<g>
					<g>
						<path class="st2" d="M928.05,791.02c-1.67-0.99-2.22-3.14-1.24-4.81c0.99-1.67,3.14-2.22,4.81-1.24
							c1.67,0.99,2.22,3.14,1.24,4.81C931.88,791.45,929.72,792.01,928.05,791.02z"/>
					</g>
					<g>
						<path class="st2" d="M927.57,662.74c0.02-1.94,1.61-3.49,3.54-3.47c1.94,0.02,3.49,1.61,3.47,3.54
							c-0.02,1.94-1.61,3.49-3.54,3.47C929.11,666.27,927.56,664.68,927.57,662.74z"/>
					</g>
					<g>
						<path class="st2" d="M1038.43,598.18c1.69-0.95,3.83-0.36,4.78,1.33c0.95,1.69,0.36,3.83-1.33,4.78
							c-1.69,0.95-3.83,0.36-4.78-1.33C1036.15,601.28,1036.74,599.14,1038.43,598.18z"/>
					</g>
					<g>
						<path class="st2" d="M1149.77,661.91c1.67,0.99,2.22,3.14,1.24,4.81c-0.99,1.67-3.14,2.22-4.81,1.24
							c-1.67-0.99-2.22-3.14-1.24-4.81C1145.94,661.48,1148.1,660.92,1149.77,661.91z"/>
					</g>
					<g>
						<path class="st2" d="M1150.25,790.19c-0.02,1.94-1.61,3.49-3.54,3.47c-1.94-0.02-3.49-1.61-3.47-3.54
							c0.02-1.94,1.61-3.49,3.54-3.47C1148.71,786.67,1150.26,788.25,1150.25,790.19z"/>
					</g>
					<g>
						<path class="st2" d="M1039.39,854.75c-1.69,0.95-3.83,0.36-4.78-1.33c-0.95-1.69-0.36-3.83,1.33-4.78
							c1.69-0.95,3.83-0.36,4.78,1.33C1041.67,851.65,1041.08,853.8,1039.39,854.75z"/>
					</g>
				</g>
				<g>
					<g>
						<path class="st2" d="M1050.93,626.86c-1.4-0.83-1.87-2.64-1.04-4.04c0.83-1.4,2.64-1.87,4.04-1.04s1.87,2.64,1.04,4.04
							C1054.14,627.22,1052.33,627.69,1050.93,626.86z"/>
					</g>
					<g>
						<path class="st2" d="M1050.53,518.9c0.02-1.63,1.35-2.94,2.98-2.92s2.94,1.35,2.92,2.98c-0.02,1.63-1.35,2.94-2.98,2.92
							C1051.82,521.87,1050.51,520.53,1050.53,518.9z"/>
					</g>
					<g>
						<path class="st2" d="M1143.82,464.58c1.42-0.8,3.22-0.3,4.02,1.12c0.8,1.42,0.3,3.22-1.12,4.02c-1.42,0.8-3.22,0.3-4.02-1.12
							S1142.4,465.38,1143.82,464.58z"/>
					</g>
					<g>
						<path class="st2" d="M1237.51,518.2c1.4,0.83,1.87,2.64,1.04,4.04c-0.83,1.4-2.64,1.87-4.04,1.04
							c-1.4-0.83-1.87-2.64-1.04-4.04C1234.3,517.84,1236.11,517.37,1237.51,518.2z"/>
					</g>
					<g>
						<path class="st2" d="M1237.92,626.16c-0.02,1.63-1.35,2.94-2.98,2.92c-1.63-0.02-2.94-1.35-2.92-2.98
							c0.02-1.63,1.35-2.94,2.98-2.92C1236.62,623.19,1237.93,624.53,1237.92,626.16z"/>
					</g>
					<g>
						<path class="st2" d="M1144.62,680.49c-1.42,0.8-3.22,0.3-4.02-1.12s-0.3-3.22,1.12-4.02c1.42-0.8,3.22-0.3,4.02,1.12
							C1146.55,677.89,1146.04,679.69,1144.62,680.49z"/>
					</g>
				</g>
				<g>
					<g>
						<path class="st2" d="M1048.8,586.56c-1.25-0.74-1.66-2.35-0.93-3.6s2.35-1.66,3.6-0.93c1.25,0.74,1.66,2.35,0.93,3.6
							C1051.66,586.89,1050.05,587.3,1048.8,586.56z"/>
					</g>
					<g>
						<path class="st2" d="M1048.44,490.54c0.01-1.45,1.2-2.62,2.65-2.6c1.45,0.01,2.62,1.2,2.6,2.65c-0.01,1.45-1.2,2.62-2.65,2.6
							S1048.42,491.99,1048.44,490.54z"/>
					</g>
					<g>
						<path class="st2" d="M1131.42,442.21c1.26-0.71,2.87-0.27,3.58,1c0.71,1.26,0.27,2.87-1,3.58s-2.87,0.27-3.58-1
							C1129.71,444.53,1130.16,442.92,1131.42,442.21z"/>
					</g>
					<g>
						<path class="st2" d="M1214.76,489.91c1.25,0.74,1.66,2.35,0.93,3.6s-2.35,1.66-3.6,0.93c-1.25-0.74-1.66-2.35-0.93-3.6
							C1211.9,489.59,1213.51,489.18,1214.76,489.91z"/>
					</g>
					<g>
						<path class="st2" d="M1215.12,585.94c-0.01,1.45-1.2,2.62-2.65,2.6c-1.45-0.01-2.62-1.2-2.6-2.65c0.01-1.45,1.2-2.61,2.65-2.6
							C1213.97,583.3,1215.13,584.49,1215.12,585.94z"/>
					</g>
					<g>
						<path class="st2" d="M1132.14,634.26c-1.26,0.71-2.87,0.27-3.58-1c-0.71-1.26-0.27-2.87,1-3.58c1.26-0.71,2.87-0.27,3.58,1
							C1133.85,631.95,1133.4,633.55,1132.14,634.26z"/>
					</g>
				</g>
				<g>
					<g>
						<path class="st2" d="M1135.25,471.68c-0.55-0.32-0.73-1.03-0.41-1.58c0.32-0.55,1.03-0.73,1.58-0.41s0.73,1.03,0.41,1.58
							C1136.5,471.82,1135.79,472,1135.25,471.68z"/>
					</g>
					<g>
						<path class="st2" d="M1135.09,429.59c0.01-0.64,0.53-1.15,1.16-1.14c0.64,0.01,1.15,0.53,1.14,1.16
							c-0.01,0.64-0.53,1.15-1.16,1.14C1135.59,430.74,1135.08,430.22,1135.09,429.59z"/>
					</g>
					<g>
						<path class="st2" d="M1171.47,408.4c0.55-0.31,1.26-0.12,1.57,0.44c0.31,0.55,0.12,1.26-0.44,1.57
							c-0.55,0.31-1.26,0.12-1.57-0.44C1170.72,409.42,1170.91,408.71,1171.47,408.4z"/>
					</g>
					<g>
						<path class="st2" d="M1208,429.31c0.55,0.32,0.73,1.03,0.41,1.58c-0.32,0.55-1.03,0.73-1.58,0.41
							c-0.55-0.32-0.73-1.03-0.41-1.58C1206.75,429.17,1207.45,428.99,1208,429.31z"/>
					</g>
					<g>
						<path class="st2" d="M1208.16,471.41c-0.01,0.64-0.53,1.15-1.16,1.14c-0.64-0.01-1.15-0.53-1.14-1.16
							c0.01-0.64,0.53-1.15,1.16-1.14C1207.65,470.25,1208.16,470.77,1208.16,471.41z"/>
					</g>
					<g>
						<path class="st2" d="M1171.78,492.59c-0.55,0.31-1.26,0.12-1.57-0.44s-0.12-1.26,0.44-1.57s1.26-0.12,1.57,0.44
							C1172.53,491.58,1172.33,492.28,1171.78,492.59z"/>
					</g>
				</g>
				<g>
					<g>
						<path class="st2" d="M772.85,533.44c-1.39-0.82-1.85-2.61-1.03-4s2.61-1.85,4-1.03c1.39,0.82,1.85,2.61,1.03,4
							C776.03,533.8,774.24,534.26,772.85,533.44z"/>
					</g>
					<g>
						<path class="st2" d="M772.45,426.68c0.02-1.61,1.34-2.91,2.95-2.89c1.61,0.02,2.91,1.34,2.89,2.95
							c-0.02,1.61-1.34,2.91-2.95,2.89C773.73,429.62,772.44,428.3,772.45,426.68z"/>
					</g>
					<g>
						<path class="st2" d="M864.71,372.96c1.4-0.79,3.19-0.3,3.98,1.11c0.79,1.4,0.3,3.19-1.11,3.98c-1.4,0.79-3.19,0.3-3.98-1.11
							C862.81,375.53,863.3,373.75,864.71,372.96z"/>
					</g>
					<g>
						<path class="st2" d="M957.36,425.99c1.39,0.82,1.85,2.61,1.03,4c-0.82,1.39-2.61,1.85-4,1.03c-1.39-0.82-1.85-2.61-1.03-4
							C954.18,425.63,955.97,425.17,957.36,425.99z"/>
					</g>
					<g>
						<path class="st2" d="M957.76,532.75c-0.02,1.61-1.34,2.91-2.95,2.89s-2.91-1.34-2.89-2.95c0.02-1.61,1.34-2.91,2.95-2.89
							C956.48,529.82,957.78,531.14,957.76,532.75z"/>
					</g>
					<g>
						<path class="st2" d="M865.51,586.47c-1.4,0.79-3.19,0.3-3.98-1.11c-0.79-1.4-0.3-3.19,1.11-3.98c1.4-0.79,3.19-0.3,3.98,1.11
							C867.41,583.9,866.91,585.68,865.51,586.47z"/>
					</g>
				</g>
				<g>
					<g>
						<path class="st2" d="M730.89,681.61c-2.09-1.24-2.79-3.94-1.55-6.03c1.24-2.09,3.94-2.79,6.03-1.55
							c2.09,1.24,2.79,3.94,1.55,6.03C735.68,682.15,732.98,682.85,730.89,681.61z"/>
					</g>
					<g>
						<path class="st2" d="M730.28,520.59c0.02-2.43,2.02-4.39,4.45-4.36c2.43,0.02,4.39,2.02,4.36,4.45
							c-0.02,2.43-2.02,4.39-4.45,4.36C732.21,525.01,730.26,523.02,730.28,520.59z"/>
					</g>
					<g>
						<path class="st2" d="M869.44,439.55c2.12-1.2,4.81-0.45,6,1.67c1.2,2.12,0.45,4.81-1.67,6c-2.12,1.2-4.81,0.45-6-1.67
							C866.57,443.43,867.32,440.75,869.44,439.55z"/>
					</g>
					<g>
						<path class="st2" d="M1009.19,519.54c2.09,1.24,2.79,3.94,1.55,6.03c-1.24,2.09-3.94,2.79-6.03,1.55
							c-2.09-1.24-2.79-3.94-1.55-6.03C1004.39,519,1007.1,518.31,1009.19,519.54z"/>
					</g>
					<g>
						<path class="st2" d="M1009.79,680.57c-0.02,2.43-2.02,4.39-4.45,4.36c-2.43-0.02-4.39-2.02-4.36-4.45
							c0.02-2.43,2.02-4.39,4.45-4.36C1007.86,676.15,1009.82,678.14,1009.79,680.57z"/>
					</g>
					<g>
						<path class="st2" d="M870.64,761.6c-2.12,1.2-4.81,0.45-6-1.67c-1.2-2.12-0.45-4.81,1.67-6c2.12-1.2,4.81-0.45,6,1.67
							C873.51,757.72,872.76,760.41,870.64,761.6z"/>
					</g>
				</g>
				<g>
					<g>
						<path class="st2" d="M579.76,567.6c-0.5-0.29-0.66-0.94-0.37-1.44c0.29-0.5,0.94-0.66,1.44-0.37c0.5,0.29,0.66,0.94,0.37,1.44
							C580.91,567.73,580.26,567.9,579.76,567.6z"/>
					</g>
					<g>
						<path class="st2" d="M579.62,529.28c0.01-0.58,0.48-1.04,1.06-1.04c0.58,0.01,1.04,0.48,1.04,1.06
							c-0.01,0.58-0.48,1.04-1.06,1.04C580.08,530.33,579.62,529.86,579.62,529.28z"/>
					</g>
					<g>
						<path class="st2" d="M612.74,509.99c0.5-0.28,1.14-0.11,1.43,0.4c0.28,0.5,0.11,1.14-0.4,1.43c-0.5,0.28-1.14,0.11-1.43-0.4
							C612.06,510.91,612.24,510.27,612.74,509.99z"/>
					</g>
					<g>
						<path class="st2" d="M646,529.03c0.5,0.29,0.66,0.94,0.37,1.44c-0.29,0.5-0.94,0.66-1.44,0.37c-0.5-0.29-0.66-0.94-0.37-1.44
							C644.86,528.9,645.51,528.73,646,529.03z"/>
					</g>
					<g>
						<path class="st2" d="M646.15,567.36c-0.01,0.58-0.48,1.04-1.06,1.04c-0.58-0.01-1.04-0.48-1.04-1.06
							c0.01-0.58,0.48-1.04,1.06-1.04C645.69,566.3,646.15,566.78,646.15,567.36z"/>
					</g>
					<g>
						<path class="st2" d="M613.03,586.64c-0.5,0.28-1.14,0.11-1.43-0.4c-0.28-0.5-0.11-1.14,0.4-1.43c0.5-0.28,1.14-0.11,1.43,0.4
							C613.71,585.72,613.53,586.36,613.03,586.64z"/>
					</g>
				</g>
				<g>
					<g>
						<path class="st2" d="M639.91,519.51c-0.47-0.28-0.63-0.89-0.35-1.37c0.28-0.47,0.89-0.63,1.37-0.35
							c0.47,0.28,0.63,0.89,0.35,1.37C640.99,519.63,640.38,519.79,639.91,519.51z"/>
					</g>
					<g>
						<path class="st2" d="M639.77,483.07c0.01-0.55,0.46-0.99,1.01-0.99c0.55,0.01,0.99,0.46,0.99,1.01
							c-0.01,0.55-0.46,0.99-1.01,0.99C640.21,484.07,639.77,483.62,639.77,483.07z"/>
					</g>
					<g>
						<path class="st2" d="M671.26,464.73c0.48-0.27,1.09-0.1,1.36,0.38c0.27,0.48,0.1,1.09-0.38,1.36
							c-0.48,0.27-1.09,0.1-1.36-0.38C670.61,465.61,670.78,465,671.26,464.73z"/>
					</g>
					<g>
						<path class="st2" d="M702.89,482.83c0.47,0.28,0.63,0.89,0.35,1.37c-0.28,0.47-0.89,0.63-1.37,0.35
							c-0.47-0.28-0.63-0.89-0.35-1.37C701.8,482.71,702.41,482.55,702.89,482.83z"/>
					</g>
					<g>
						<path class="st2" d="M703.02,519.28c-0.01,0.55-0.46,0.99-1.01,0.99c-0.55-0.01-0.99-0.46-0.99-1.01
							c0.01-0.55,0.46-0.99,1.01-0.99C702.59,518.27,703.03,518.72,703.02,519.28z"/>
					</g>
					<g>
						<path class="st2" d="M671.53,537.61c-0.48,0.27-1.09,0.1-1.36-0.38c-0.27-0.48-0.1-1.09,0.38-1.36
							c0.48-0.27,1.09-0.1,1.36,0.38C672.18,536.73,672.01,537.34,671.53,537.61z"/>
					</g>
				</g>
				<g>
					<g>
						<path class="st2" d="M462.98,463.26c-1.24,0.7-1.67,2.27-0.98,3.5c0.7,1.24,2.27,1.67,3.5,0.98c1.24-0.7,1.67-2.27,0.98-3.5
							C465.79,463,464.22,462.56,462.98,463.26z"/>
					</g>
					<g>
						<path class="st2" d="M460.76,557.26c-0.01,1.42,1.13,2.58,2.55,2.6c1.42,0.01,2.58-1.13,2.6-2.55
							c0.01-1.42-1.13-2.58-2.55-2.6S460.78,555.84,460.76,557.26z"/>
					</g>
					<g>
						<path class="st2" d="M541.06,606.18c1.22,0.72,2.8,0.32,3.52-0.91c0.72-1.22,0.32-2.8-0.91-3.52
							c-1.22-0.72-2.8-0.32-3.52,0.91C539.43,603.88,539.84,605.46,541.06,606.18z"/>
					</g>
					<g>
						<path class="st2" d="M623.58,561.1c1.24-0.7,1.67-2.27,0.98-3.5c-0.7-1.24-2.27-1.67-3.5-0.98c-1.24,0.7-1.67,2.27-0.98,3.5
							C620.77,561.36,622.34,561.8,623.58,561.1z"/>
					</g>
					<g>
						<path class="st2" d="M625.8,467.1c0.01-1.42-1.13-2.58-2.55-2.6s-2.58,1.13-2.6,2.55c-0.01,1.42,1.13,2.58,2.55,2.6
							C624.62,469.66,625.79,468.52,625.8,467.1z"/>
					</g>
					<g>
						<path class="st2" d="M545.5,418.18c-1.22-0.72-2.8-0.32-3.52,0.91c-0.72,1.22-0.32,2.8,0.91,3.52
							c1.22,0.72,2.8,0.32,3.52-0.91C547.13,420.48,546.72,418.9,545.5,418.18z"/>
					</g>
				</g>
				<g>
					<g>
						<path class="st2" d="M191.29,208.68c-0.63,0.35-0.85,1.15-0.49,1.78c0.35,0.63,1.15,0.85,1.78,0.49
							c0.63-0.35,0.85-1.15,0.49-1.78C192.71,208.55,191.91,208.32,191.29,208.68z"/>
					</g>
					<g>
						<path class="st2" d="M190.16,256.29c-0.01,0.72,0.57,1.31,1.29,1.32c0.72,0.01,1.31-0.57,1.32-1.29
							c0.01-0.72-0.57-1.31-1.29-1.32C190.76,255,190.17,255.58,190.16,256.29z"/>
					</g>
					<g>
						<path class="st2" d="M230.84,281.08c0.62,0.37,1.42,0.16,1.78-0.46c0.37-0.62,0.16-1.42-0.46-1.78
							c-0.62-0.37-1.42-0.16-1.78,0.46C230.01,279.91,230.22,280.71,230.84,281.08z"/>
					</g>
					<g>
						<path class="st2" d="M272.64,258.24c0.63-0.35,0.85-1.15,0.49-1.78c-0.35-0.63-1.15-0.85-1.78-0.49
							c-0.63,0.35-0.85,1.15-0.49,1.78C271.22,258.38,272.01,258.6,272.64,258.24z"/>
					</g>
					<g>
						<path class="st2" d="M273.76,210.63c0.01-0.72-0.57-1.31-1.29-1.32c-0.72-0.01-1.31,0.57-1.32,1.29
							c-0.01,0.72,0.57,1.31,1.29,1.32C273.17,211.92,273.76,211.35,273.76,210.63z"/>
					</g>
					<g>
						<path class="st2" d="M233.09,185.84c-0.62-0.37-1.42-0.16-1.78,0.46c-0.37,0.62-0.16,1.42,0.46,1.78
							c0.62,0.37,1.42,0.16,1.78-0.46C233.91,187.01,233.71,186.21,233.09,185.84z"/>
					</g>
				</g>
				<g>
					<g>
						<path class="st2" d="M975.35,824.63c-0.83-0.49-1.1-1.56-0.61-2.39c0.49-0.83,1.56-1.1,2.39-0.61
							c0.83,0.49,1.1,1.56,0.61,2.39C977.25,824.84,976.18,825.12,975.35,824.63z"/>
					</g>
					<g>
						<path class="st2" d="M975.11,760.89c0.01-0.96,0.8-1.74,1.76-1.73s1.74,0.8,1.73,1.76c-0.01,0.96-0.8,1.74-1.76,1.73
							C975.88,762.65,975.1,761.86,975.11,760.89z"/>
					</g>
					<g>
						<path class="st2" d="M1030.19,728.82c0.84-0.47,1.9-0.18,2.38,0.66c0.47,0.84,0.18,1.9-0.66,2.38
							c-0.84,0.47-1.9,0.18-2.38-0.66C1029.05,730.36,1029.35,729.29,1030.19,728.82z"/>
					</g>
					<g>
						<path class="st2" d="M1085.5,760.48c0.83,0.49,1.1,1.56,0.61,2.39c-0.49,0.83-1.56,1.1-2.39,0.61
							c-0.83-0.49-1.1-1.56-0.61-2.39C1083.61,760.27,1084.67,759.99,1085.5,760.48z"/>
					</g>
					<g>
						<path class="st2" d="M1085.74,824.22c-0.01,0.96-0.8,1.74-1.76,1.73c-0.96-0.01-1.74-0.8-1.73-1.76
							c0.01-0.96,0.8-1.74,1.76-1.73C1084.98,822.46,1085.75,823.25,1085.74,824.22z"/>
					</g>
					<g>
						<path class="st2" d="M1030.67,856.29c-0.84,0.47-1.9,0.18-2.38-0.66c-0.47-0.84-0.18-1.9,0.66-2.38
							c0.84-0.47,1.9-0.18,2.38,0.66C1031.8,854.75,1031.51,855.82,1030.67,856.29z"/>
					</g>
				</g>
				<g>
					<g>
						<path class="st2" d="M669.96,521.37c-0.83-0.49-1.1-1.56-0.61-2.39c0.49-0.83,1.56-1.1,2.39-0.61
							c0.83,0.49,1.1,1.56,0.61,2.39C671.86,521.58,670.79,521.86,669.96,521.37z"/>
					</g>
					<g>
						<path class="st2" d="M669.72,457.67c0.01-0.96,0.8-1.73,1.76-1.73c0.96,0.01,1.73,0.8,1.73,1.76
							c-0.01,0.96-0.8,1.73-1.76,1.73C670.49,459.42,669.71,458.63,669.72,457.67z"/>
					</g>
					<g>
						<path class="st2" d="M724.77,425.61c0.84-0.47,1.9-0.18,2.37,0.66c0.47,0.84,0.18,1.9-0.66,2.37
							c-0.84,0.47-1.9,0.18-2.37-0.66C723.63,427.15,723.93,426.09,724.77,425.61z"/>
					</g>
					<g>
						<path class="st2" d="M780.05,457.26c0.83,0.49,1.1,1.56,0.61,2.39c-0.49,0.83-1.56,1.1-2.39,0.61
							c-0.83-0.49-1.1-1.56-0.61-2.39C778.16,457.04,779.22,456.77,780.05,457.26z"/>
					</g>
					<g>
						<path class="st2" d="M780.29,520.96c-0.01,0.96-0.8,1.73-1.76,1.73c-0.96-0.01-1.73-0.8-1.73-1.76
							c0.01-0.96,0.8-1.73,1.76-1.73C779.53,519.21,780.3,519.99,780.29,520.96z"/>
					</g>
					<g>
						<path class="st2" d="M725.25,553.01c-0.84,0.47-1.9,0.18-2.37-0.66c-0.47-0.84-0.18-1.9,0.66-2.37
							c0.84-0.47,1.9-0.18,2.37,0.66C726.38,551.48,726.08,552.54,725.25,553.01z"/>
					</g>
				</g>
			</g>
			<g>
				<g>
					<path class="st2" d="M251.68,308.4c3.22,1.9,4.29,6.06,2.39,9.28c-1.9,3.22-6.06,4.29-9.28,2.39c-3.22-1.9-4.29-6.06-2.39-9.28
						C244.3,307.57,248.46,306.5,251.68,308.4z"/>
				</g>
				<g>
					<path class="st2" d="M254.5,466.71c-0.04,4.3-3.56,7.75-7.86,7.71c-4.3-0.04-7.75-3.56-7.71-7.86c0.04-4.3,3.56-7.75,7.86-7.71
						C251.09,458.89,254.54,462.42,254.5,466.71z"/>
				</g>
				<g>
					<path class="st2" d="M117.57,547.9c-3.52,1.99-7.98,0.74-9.97-2.78c-1.99-3.52-0.74-7.98,2.78-9.97
						c3.52-1.99,7.98-0.74,9.97,2.78C122.33,541.45,121.09,545.91,117.57,547.9z"/>
				</g>
				<g>
					<path class="st2" d="M-19.79,468.31c-2.37-1.4-3.16-4.46-1.76-6.83c1.4-2.37,4.46-3.16,6.83-1.76c2.37,1.4,3.16,4.46,1.76,6.83
						C-14.35,468.92-17.42,469.71-19.79,468.31z"/>
				</g>
				<g>
					<path class="st2" d="M-22.52,311.55c0.04-3.75,3.11-6.76,6.85-6.72c3.75,0.04,6.76,3.11,6.72,6.85
						c-0.04,3.75-3.11,6.76-6.85,6.72C-19.55,318.36-22.56,315.29-22.52,311.55z"/>
				</g>
				<g>
					<path class="st2" d="M113.36,230.26c3.57-2.01,8.09-0.75,10.11,2.82c2.01,3.57,0.75,8.09-2.82,10.11
						c-3.57,2.01-8.09,0.75-10.11-2.82C108.53,236.8,109.79,232.28,113.36,230.26z"/>
				</g>
				<g>
					<path class="st2" d="M66.53,42.57c1.1,0.65,1.46,2.07,0.81,3.16c-0.65,1.1-2.07,1.46-3.16,0.81c-1.1-0.65-1.46-2.07-0.81-3.16
						C64.02,42.29,65.44,41.93,66.53,42.57z"/>
				</g>
				<g>
					<circle class="st2" cx="64.88" cy="93.22" r="1.49"/>
				</g>
				<g>
					<path class="st2" d="M23.72,119.28c-1.19,0.67-2.7,0.25-3.38-0.94s-0.25-2.7,0.94-3.38c1.19-0.67,2.7-0.25,3.38,0.94
						C25.33,117.1,24.91,118.61,23.72,119.28z"/>
				</g>
				<g>
					<path class="st2" d="M-20.33,93.95c-0.87-0.51-1.16-1.64-0.65-2.51c0.51-0.87,1.64-1.16,2.51-0.64
						c0.87,0.51,1.16,1.64,0.65,2.51C-18.33,94.18-19.46,94.47-20.33,93.95z"/>
				</g>
				<g>
					<path class="st2" d="M-21.06,43.7c0.01-1.19,0.98-2.14,2.17-2.13c1.19,0.01,2.14,0.98,2.13,2.17
						c-0.01,1.19-0.98,2.14-2.17,2.13C-20.12,45.86-21.07,44.89-21.06,43.7z"/>
				</g>
				<g>
					<path class="st2" d="M22.65,18.37c0.8-0.45,1.81-0.17,2.27,0.63c0.45,0.8,0.17,1.81-0.63,2.27c-0.8,0.45-1.81,0.17-2.27-0.63
						C21.57,19.83,21.85,18.82,22.65,18.37z"/>
				</g>
				<g>
					<path class="st2" d="M117.3,119.13c1.47,0.87,1.95,2.76,1.09,4.22c-0.87,1.47-2.76,1.95-4.22,1.09
						c-1.47-0.87-1.95-2.76-1.09-4.22C113.94,118.75,115.84,118.27,117.3,119.13z"/>
				</g>
				<g>
					<path class="st2" d="M119.38,207.95c-0.02,2.48-2.06,4.48-4.54,4.45c-2.48-0.02-4.48-2.06-4.45-4.54
						c0.02-2.48,2.06-4.48,4.54-4.45C117.41,203.43,119.4,205.47,119.38,207.95z"/>
				</g>
				<g>
					<path class="st2" d="M41.75,253.58c-1.85,1.04-4.19,0.39-5.23-1.46c-1.04-1.85-0.39-4.19,1.46-5.23
						c1.85-1.04,4.19-0.39,5.23,1.46C44.25,250.19,43.6,252.53,41.75,253.58z"/>
				</g>
				<g>
					<path class="st2" d="M-36,209.32c-1.6-0.94-2.13-3-1.18-4.6c0.94-1.6,3-2.13,4.6-1.18c1.6,0.94,2.13,3,1.18,4.6
						C-32.34,209.73-34.4,210.26-36,209.32z"/>
				</g>
				<g>
					<path class="st2" d="M-38.14,120.26c0.03-2.6,2.15-4.69,4.75-4.66c2.6,0.03,4.69,2.15,4.66,4.75c-0.03,2.6-2.15,4.69-4.75,4.66
						C-36.08,124.99-38.17,122.86-38.14,120.26z"/>
				</g>
				<g>
					<path class="st2" d="M39.3,73.94c2.23-1.26,5.06-0.47,6.32,1.76c1.26,2.23,0.47,5.06-1.76,6.32c-2.23,1.26-5.06,0.47-6.32-1.76
						C36.28,78.03,37.07,75.2,39.3,73.94z"/>
				</g>
				<g>
					<path class="st2" d="M268.94,451.45c1.16,0.68,1.54,2.17,0.86,3.33c-0.68,1.16-2.17,1.54-3.33,0.86
						c-1.16-0.68-1.54-2.17-0.86-3.33C266.3,451.15,267.79,450.77,268.94,451.45z"/>
				</g>
				<g>
					<path class="st2" d="M269.93,523.4c-0.02,1.61-1.34,2.91-2.95,2.89c-1.61-0.02-2.91-1.34-2.89-2.95
						c0.02-1.61,1.34-2.91,2.95-2.89C268.66,520.46,269.95,521.78,269.93,523.4z"/>
				</g>
				<g>
					<path class="st2" d="M208.1,561.05c-1.86,1.05-4.22,0.39-5.27-1.47c-1.05-1.86-0.39-4.22,1.47-5.27
						c1.86-1.05,4.22-0.39,5.27,1.47C210.61,557.64,209.96,560,208.1,561.05z"/>
				</g>
				<g>
					<path class="st2" d="M144.62,524.63c-1.36-0.8-1.81-2.56-1.01-3.92c0.8-1.36,2.56-1.81,3.92-1.01c1.36,0.8,1.81,2.56,1.01,3.92
						C147.73,524.98,145.98,525.43,144.62,524.63z"/>
				</g>
				<g>
					<path class="st2" d="M143.4,452.31c0.02-1.86,1.54-3.35,3.4-3.33c1.86,0.02,3.35,1.54,3.33,3.4s-1.54,3.35-3.4,3.33
						S143.38,454.17,143.4,452.31z"/>
				</g>
				<g>
					<path class="st2" d="M206.24,415.65c1.31-0.74,2.98-0.28,3.72,1.04c0.74,1.31,0.28,2.98-1.04,3.72
						c-1.31,0.74-2.98,0.28-3.72-1.04C204.47,418.06,204.93,416.39,206.24,415.65z"/>
				</g>
				<g>
					<path class="st2" d="M323.61,282.99c2.59,1.53,3.45,4.87,1.92,7.46c-1.53,2.59-4.87,3.45-7.46,1.92
						c-2.59-1.53-3.45-4.87-1.92-7.46C317.68,282.32,321.02,281.46,323.61,282.99z"/>
				</g>
				<g>
					<path class="st2" d="M325.53,397.94c-0.03,3.2-2.65,5.77-5.85,5.73c-3.2-0.03-5.77-2.65-5.73-5.85
						c0.03-3.2,2.65-5.77,5.85-5.73C323,392.12,325.57,394.74,325.53,397.94z"/>
				</g>
				<g>
					<path class="st2" d="M225.45,455.05c-1.66,0.94-3.77,0.35-4.71-1.31c-0.94-1.66-0.35-3.77,1.31-4.71
						c1.66-0.94,3.77-0.35,4.71,1.31C227.7,452,227.12,454.11,225.45,455.05z"/>
				</g>
				<g>
					<path class="st2" d="M127.17,398.84c-1.57-0.93-2.1-2.96-1.17-4.54c0.93-1.57,2.96-2.1,4.54-1.17c1.57,0.93,2.1,2.96,1.17,4.54
						C130.78,399.24,128.75,399.77,127.17,398.84z"/>
				</g>
				<g>
					<path class="st2" d="M126.33,285.74c0.02-2,1.66-3.61,3.66-3.59c2,0.02,3.61,1.66,3.59,3.66c-0.02,2-1.66,3.61-3.66,3.59
						C127.91,289.39,126.31,287.75,126.33,285.74z"/>
				</g>
				<g>
					<path class="st2" d="M224.23,228.58c1.68-0.95,3.81-0.35,4.75,1.32c0.95,1.68,0.35,3.81-1.32,4.75
						c-1.68,0.95-3.81,0.35-4.75-1.32C221.96,231.66,222.55,229.53,224.23,228.58z"/>
				</g>
				<g>
					<path class="st2" d="M407.61,253.98c1.3,0.77,1.74,2.45,0.97,3.75c-0.77,1.3-2.45,1.74-3.75,0.97
						c-1.3-0.77-1.74-2.45-0.97-3.75C404.62,253.65,406.31,253.21,407.61,253.98z"/>
				</g>
				<g>
					<path class="st2" d="M408.29,326.2c-0.02,1.53-1.27,2.76-2.8,2.75c-1.53-0.02-2.76-1.27-2.75-2.8c0.02-1.53,1.27-2.76,2.8-2.75
						C407.08,323.41,408.31,324.66,408.29,326.2z"/>
				</g>
				<g>
					<path class="st2" d="M346.11,362.98c-1.38,0.78-3.13,0.29-3.9-1.09c-0.78-1.38-0.29-3.13,1.09-3.9
						c1.38-0.78,3.13-0.29,3.9,1.09C347.98,360.45,347.49,362.2,346.11,362.98z"/>
				</g>
				<g>
					<path class="st2" d="M283.46,326.87c-1.05-0.62-1.4-1.98-0.78-3.03c0.62-1.05,1.98-1.4,3.03-0.78c1.05,0.62,1.4,1.98,0.78,3.03
						C285.86,327.14,284.51,327.49,283.46,326.87z"/>
				</g>
				<g>
					<path class="st2" d="M282.43,255.11c0.02-1.57,1.3-2.83,2.87-2.81c1.57,0.02,2.83,1.3,2.81,2.87s-1.3,2.83-2.87,2.81
						C283.68,257.97,282.42,256.68,282.43,255.11z"/>
				</g>
				<g>
					<path class="st2" d="M344.41,217.85c1.65-0.93,3.73-0.35,4.66,1.3c0.93,1.65,0.35,3.73-1.3,4.66c-1.65,0.93-3.73,0.35-4.66-1.3
						C342.18,220.87,342.76,218.78,344.41,217.85z"/>
				</g>
				<g>
					<path class="st2" d="M452.95,366.11c0.65,0.38,0.86,1.22,0.48,1.87c-0.38,0.65-1.22,0.86-1.87,0.48
						c-0.65-0.38-0.86-1.22-0.48-1.87C451.47,365.94,452.3,365.72,452.95,366.11z"/>
				</g>
				<g>
					<path class="st2" d="M453.23,411.21c-0.01,0.78-0.64,1.4-1.42,1.39c-0.78-0.01-1.4-0.64-1.39-1.42
						c0.01-0.78,0.64-1.4,1.42-1.39C452.61,409.8,453.24,410.43,453.23,411.21z"/>
				</g>
				<g>
					<path class="st2" d="M414.31,434.08c-0.72,0.41-1.64,0.15-2.05-0.57c-0.41-0.72-0.15-1.64,0.57-2.05
						c0.72-0.41,1.64-0.15,2.05,0.57C415.29,432.76,415.04,433.67,414.31,434.08z"/>
				</g>
				<g>
					<path class="st2" d="M374.77,412.12c-0.93-0.55-1.23-1.74-0.69-2.67c0.55-0.93,1.74-1.23,2.67-0.69
						c0.93,0.55,1.23,1.74,0.69,2.67C376.89,412.36,375.7,412.66,374.77,412.12z"/>
				</g>
				<g>
					<path class="st2" d="M374.75,366.51c0.01-0.8,0.66-1.44,1.46-1.44c0.8,0.01,1.44,0.66,1.44,1.46c-0.01,0.8-0.66,1.44-1.46,1.44
						C375.38,367.97,374.74,367.31,374.75,366.51z"/>
				</g>
				<g>
					<path class="st2" d="M413.51,343.29c0.92-0.52,2.08-0.19,2.59,0.72c0.52,0.92,0.19,2.08-0.72,2.59
						c-0.92,0.52-2.08,0.19-2.59-0.72C412.27,344.97,412.6,343.8,413.51,343.29z"/>
				</g>
				<g>
					<path class="st2" d="M465.3,299.52c0.8,0.48,1.07,1.51,0.6,2.32c-0.48,0.8-1.51,1.07-2.32,0.6c-0.8-0.48-1.07-1.51-0.6-2.32
						C463.46,299.32,464.5,299.05,465.3,299.52z"/>
				</g>
				<g>
					<path class="st2" d="M466.22,348.63c-0.01,1.24-1.03,2.24-2.27,2.22c-1.24-0.01-2.24-1.03-2.22-2.27
						c0.01-1.24,1.03-2.24,2.27-2.22C465.23,346.37,466.23,347.39,466.22,348.63z"/>
				</g>
				<g>
					<path class="st2" d="M423.43,373.69c-0.93,0.52-2.1,0.2-2.62-0.73c-0.52-0.93-0.2-2.1,0.73-2.62c0.93-0.52,2.1-0.2,2.62,0.73
						C424.68,371.99,424.36,373.17,423.43,373.69z"/>
				</g>
				<g>
					<path class="st2" d="M380.33,349.73c-1.07-0.63-1.43-2.02-0.79-3.09c0.63-1.07,2.02-1.43,3.09-0.79
						c1.07,0.63,1.43,2.02,0.79,3.09C382.79,350.01,381.4,350.36,380.33,349.73z"/>
				</g>
				<g>
					<path class="st2" d="M379.72,300.14c0.01-1.23,1.02-2.22,2.26-2.21c1.23,0.01,2.22,1.02,2.21,2.26
						c-0.01,1.23-1.02,2.22-2.26,2.21C380.69,302.38,379.7,301.37,379.72,300.14z"/>
				</g>
				<g>
					<path class="st2" d="M422.18,274.53c1.23-0.69,2.79-0.26,3.48,0.97c0.69,1.23,0.26,2.79-0.97,3.48
						c-1.23,0.69-2.79,0.26-3.48-0.97C420.51,276.78,420.95,275.23,422.18,274.53z"/>
				</g>
				<g>
					<path class="st2" d="M-5.71,135.75c1.34,0.79,1.79,2.53,1,3.87c-0.79,1.34-2.53,1.79-3.87,1c-1.34-0.79-1.79-2.53-1-3.87
						C-8.79,135.4-7.05,134.96-5.71,135.75z"/>
				</g>
				<g>
					<path class="st2" d="M-5.95,193.92c-0.01,0.97-0.8,1.74-1.77,1.73c-0.97-0.01-1.74-0.8-1.73-1.77c0.01-0.97,0.8-1.74,1.77-1.73
						C-6.72,192.16-5.94,192.95-5.95,193.92z"/>
				</g>
				<g>
					<path class="st2" d="M-54.92,223.6c-1.28,0.72-2.92,0.27-3.64-1.01c-0.73-1.29-0.27-2.92,1.01-3.64
						c1.29-0.72,2.92-0.27,3.64,1.01C-53.18,221.25-53.63,222.88-54.92,223.6z"/>
				</g>
				<g>
					<path class="st2" d="M-105.74,195.55c-1.44-0.85-1.92-2.71-1.07-4.15c0.85-1.44,2.71-1.92,4.15-1.07
						c1.44,0.85,1.92,2.71,1.07,4.15C-102.44,195.92-104.3,196.4-105.74,195.55z"/>
				</g>
				<g>
					<path class="st2" d="M-105.71,137.21c0.01-1.14,0.94-2.05,2.08-2.04c1.14,0.01,2.05,0.94,2.04,2.08
						c-0.01,1.14-0.94,2.05-2.08,2.04C-104.81,139.28-105.72,138.34-105.71,137.21z"/>
				</g>
				<g>
					<path class="st2" d="M-55.9,108.47c0.76-0.43,1.73-0.16,2.15,0.6c0.43,0.76,0.16,1.72-0.6,2.15c-0.76,0.43-1.73,0.16-2.15-0.6
						C-56.93,109.87-56.66,108.9-55.9,108.47z"/>
				</g>
				<g>
					<path class="st2" d="M552.32,505.05c1.2,0.71,1.6,2.26,0.89,3.47c-0.71,1.2-2.26,1.6-3.47,0.89c-1.2-0.71-1.6-2.26-0.89-3.47
						C549.56,504.74,551.12,504.34,552.32,505.05z"/>
				</g>
				<g>
					<path class="st2" d="M553.1,584.53c-0.02,1.56-1.3,2.82-2.86,2.81c-1.56-0.02-2.82-1.3-2.81-2.86c0.02-1.56,1.3-2.82,2.86-2.81
						C551.86,581.68,553.11,582.96,553.1,584.53z"/>
				</g>
				<g>
					<path class="st2" d="M484.33,624.89c-1.34,0.76-3.04,0.28-3.79-1.06c-0.76-1.34-0.28-3.04,1.06-3.79
						c1.34-0.76,3.04-0.28,3.79,1.06C486.15,622.44,485.67,624.14,484.33,624.89z"/>
				</g>
				<g>
					<path class="st2" d="M415.3,585.09c-1.06-0.62-1.41-1.99-0.78-3.05c0.62-1.06,1.99-1.41,3.05-0.78
						c1.06,0.62,1.41,1.99,0.78,3.05C417.73,585.36,416.36,585.71,415.3,585.09z"/>
				</g>
				<g>
					<path class="st2" d="M413.41,505.86c0.02-2.09,1.74-3.77,3.83-3.75c2.09,0.02,3.77,1.74,3.75,3.83
						c-0.02,2.09-1.74,3.78-3.83,3.75C415.07,509.67,413.39,507.96,413.41,505.86z"/>
				</g>
				<g>
					<path class="st2" d="M482.47,464.34c1.98-1.12,4.5-0.42,5.62,1.57c1.12,1.98,0.42,4.5-1.57,5.62c-1.98,1.12-4.5,0.42-5.62-1.57
						C479.79,467.98,480.49,465.46,482.47,464.34z"/>
				</g>
				<g>
					<path class="st2" d="M415.75,410.62c1.86,1.1,2.48,3.5,1.38,5.36s-3.5,2.48-5.36,1.38c-1.86-1.1-2.48-3.5-1.38-5.36
						C411.49,410.14,413.89,409.52,415.75,410.62z"/>
				</g>
				<g>
					<path class="st2" d="M416.06,492.11c-0.02,1.7-1.41,3.06-3.11,3.05c-1.7-0.02-3.06-1.41-3.05-3.11
						c0.02-1.7,1.41-3.06,3.11-3.05C414.72,489.02,416.08,490.41,416.06,492.11z"/>
				</g>
				<g>
					<path class="st2" d="M346.52,533.2c-1.52,0.86-3.44,0.32-4.3-1.2c-0.86-1.52-0.32-3.44,1.2-4.3c1.52-0.86,3.44-0.32,4.3,1.2
						C348.58,530.42,348.04,532.34,346.52,533.2z"/>
				</g>
				<g>
					<path class="st2" d="M276.19,493.35c-1.44-0.85-1.92-2.71-1.07-4.16c0.85-1.44,2.71-1.92,4.16-1.07
						c1.44,0.85,1.92,2.71,1.07,4.16C279.49,493.72,277.63,494.2,276.19,493.35z"/>
				</g>
				<g>
					<path class="st2" d="M275.97,412.62c0.01-1.4,1.16-2.53,2.57-2.52c1.4,0.01,2.53,1.16,2.52,2.57c-0.01,1.4-1.16,2.53-2.57,2.52
						C277.08,415.17,275.96,414.02,275.97,412.62z"/>
				</g>
				<g>
					<path class="st2" d="M344.82,371.25c1.67-0.94,3.79-0.35,4.73,1.32c0.94,1.67,0.35,3.79-1.32,4.73
						c-1.67,0.94-3.79,0.35-4.73-1.32C342.56,374.31,343.15,372.19,344.82,371.25z"/>
				</g>
				<g>
					<path class="st2" d="M438.96,460.43c0.77,0.45,1.02,1.44,0.57,2.21c-0.45,0.77-1.44,1.02-2.21,0.57
						c-0.77-0.45-1.02-1.44-0.57-2.21C437.21,460.23,438.2,459.98,438.96,460.43z"/>
				</g>
				<g>
					<path class="st2" d="M439.67,507.35c-0.01,1.09-0.91,1.97-2,1.96c-1.09-0.01-1.97-0.9-1.96-2c0.01-1.09,0.9-1.97,2-1.96
						C438.8,505.37,439.68,506.26,439.67,507.35z"/>
				</g>
				<g>
					<path class="st2" d="M399.05,531.48c-0.98,0.55-2.23,0.21-2.78-0.78c-0.55-0.98-0.21-2.23,0.78-2.78
						c0.98-0.55,2.23-0.21,2.78,0.78C400.38,529.68,400.03,530.93,399.05,531.48z"/>
				</g>
				<g>
					<path class="st2" d="M358.14,507.76c-0.67-0.39-0.89-1.25-0.49-1.92c0.39-0.67,1.25-0.89,1.92-0.49
						c0.67,0.39,0.89,1.25,0.49,1.92C359.67,507.93,358.81,508.15,358.14,507.76z"/>
				</g>
				<g>
					<path class="st2" d="M357.63,461.02c0.01-0.92,0.77-1.67,1.69-1.66c0.92,0.01,1.67,0.77,1.66,1.69
						c-0.01,0.92-0.77,1.67-1.69,1.66C358.36,462.7,357.62,461.94,357.63,461.02z"/>
				</g>
				<g>
					<path class="st2" d="M398.19,437.32c0.74-0.42,1.69-0.16,2.11,0.59c0.42,0.74,0.16,1.69-0.59,2.11
						c-0.74,0.42-1.69,0.16-2.11-0.59C397.18,438.68,397.45,437.74,398.19,437.32z"/>
				</g>
				<g>
					<path class="st2" d="M94.57,233.44c1.64,0.97,2.19,3.09,1.22,4.74c-0.97,1.64-3.09,2.19-4.74,1.22
						c-1.64-0.97-2.19-3.09-1.22-4.74C90.8,233.01,92.92,232.47,94.57,233.44z"/>
				</g>
				<g>
					<path class="st2" d="M94.32,312.93c-0.01,1.25-1.04,2.26-2.29,2.25c-1.25-0.01-2.26-1.04-2.25-2.29
						c0.01-1.25,1.04-2.26,2.29-2.25C93.33,310.65,94.33,311.67,94.32,312.93z"/>
				</g>
				<g>
					<path class="st2" d="M27,353.27c-1.54,0.87-3.48,0.32-4.35-1.21c-0.87-1.54-0.32-3.48,1.21-4.35c1.54-0.87,3.48-0.32,4.35,1.21
						C29.08,350.46,28.53,352.41,27,353.27z"/>
				</g>
				<g>
					<path class="st2" d="M-42.2,314.57c-1.65-0.97-2.19-3.1-1.22-4.75s3.1-2.19,4.75-1.22c1.65,0.97,2.19,3.1,1.22,4.75
						C-38.42,315-40.55,315.55-42.2,314.57z"/>
				</g>
				<g>
					<path class="st2" d="M-42.65,235.07c0.02-1.64,1.36-2.96,3-2.94c1.64,0.02,2.96,1.36,2.94,3c-0.02,1.64-1.36,2.96-3,2.94
						C-41.35,238.06-42.66,236.71-42.65,235.07z"/>
				</g>
				<g>
					<path class="st2" d="M25.89,195.64c1.03-0.58,2.34-0.22,2.93,0.82c0.58,1.03,0.22,2.34-0.82,2.93
						c-1.03,0.58-2.34,0.22-2.93-0.81C24.5,197.54,24.86,196.23,25.89,195.64z"/>
				</g>
				<g>
					<path class="st2" d="M105.73,408.27c2.29,1.35,3.05,4.31,1.7,6.6s-4.31,3.05-6.6,1.7c-2.29-1.35-3.05-4.31-1.7-6.6
						C100.48,407.67,103.44,406.91,105.73,408.27z"/>
				</g>
				<g>
					<path class="st2" d="M107.32,506.09c-0.03,2.75-2.28,4.95-5.02,4.93c-2.75-0.03-4.95-2.28-4.93-5.02s2.28-4.95,5.02-4.93
						C105.14,501.09,107.35,503.34,107.32,506.09z"/>
				</g>
				<g>
					<path class="st2" d="M23.13,556.17c-2.28,1.28-5.17,0.48-6.45-1.8c-1.28-2.28-0.48-5.17,1.8-6.45c2.28-1.28,5.17-0.48,6.45,1.8
						C26.21,551.99,25.4,554.88,23.13,556.17z"/>
				</g>
				<g>
					<path class="st2" d="M-61.62,507.49c-1.69-1-2.25-3.18-1.25-4.87c1-1.69,3.18-2.25,4.87-1.25c1.69,1,2.25,3.18,1.25,4.87
						C-57.75,507.92-59.93,508.49-61.62,507.49z"/>
				</g>
				<g>
					<path class="st2" d="M-63.78,410.75c0.03-2.7,2.24-4.87,4.94-4.84c2.7,0.03,4.87,2.24,4.84,4.94c-0.03,2.7-2.24,4.87-4.94,4.84
						C-61.63,415.66-63.8,413.45-63.78,410.75z"/>
				</g>
				<g>
					<path class="st2" d="M20.55,361.05c2.07-1.17,4.69-0.44,5.85,1.63c1.17,2.07,0.44,4.69-1.63,5.85
						c-2.07,1.17-4.69,0.44-5.85-1.63C17.75,364.84,18.48,362.22,20.55,361.05z"/>
				</g>
				<g>
					<path class="st2" d="M878.94,671.73c-1.63-0.96-2.17-3.06-1.21-4.69c0.96-1.63,3.06-2.17,4.69-1.21
						c1.63,0.96,2.17,3.06,1.21,4.69C882.66,672.15,880.56,672.69,878.94,671.73z"/>
				</g>
				<g>
					<path class="st2" d="M877.87,567.78c0.02-2.1,1.74-3.79,3.84-3.77c2.1,0.02,3.79,1.74,3.77,3.84c-0.02,2.1-1.74,3.79-3.84,3.77
						C879.54,571.61,877.85,569.88,877.87,567.78z"/>
				</g>
				<g>
					<path class="st2" d="M967.09,513.73c2.47-1.39,5.61-0.52,7,1.95c1.39,2.47,0.52,5.61-1.95,7c-2.47,1.39-5.61,0.52-7-1.95
						C963.75,518.26,964.62,515.13,967.09,513.73z"/>
				</g>
				<g>
					<path class="st2" d="M1058.07,566.97c1.43,0.84,1.9,2.68,1.06,4.11c-0.84,1.43-2.68,1.9-4.11,1.06
						c-1.43-0.84-1.9-2.68-1.06-4.11C1054.81,566.61,1056.65,566.13,1058.07,566.97z"/>
				</g>
				<g>
					<path class="st2" d="M1060.12,670.56c-0.02,2.53-2.09,4.55-4.62,4.53c-2.53-0.03-4.55-2.09-4.53-4.62
						c0.03-2.53,2.09-4.55,4.62-4.53C1058.11,665.97,1060.14,668.04,1060.12,670.56z"/>
				</g>
				<g>
					<path class="st2" d="M969.82,724.04c-2.16,1.22-4.91,0.46-6.13-1.71c-1.22-2.16-0.46-4.91,1.71-6.12
						c2.16-1.22,4.91-0.46,6.12,1.71C972.74,720.08,971.98,722.82,969.82,724.04z"/>
				</g>
				<g>
					<path class="st2" d="M1012.42,782.35c-1.03-0.61-1.37-1.94-0.76-2.97c0.61-1.03,1.94-1.37,2.97-0.76
						c1.03,0.61,1.37,1.94,0.76,2.97C1014.78,782.62,1013.45,782.96,1012.42,782.35z"/>
				</g>
				<g>
					<path class="st2" d="M1010.87,717.28c0.02-1.81,1.5-3.26,3.31-3.25c1.81,0.02,3.26,1.5,3.25,3.31
						c-0.02,1.81-1.5,3.26-3.31,3.25C1012.31,720.58,1010.86,719.1,1010.87,717.28z"/>
				</g>
				<g>
					<path class="st2" d="M1067.88,683.98c1.27-0.72,2.88-0.27,3.59,1c0.72,1.27,0.27,2.88-1,3.59c-1.27,0.72-2.88,0.27-3.59-1
						C1066.16,686.3,1066.61,684.7,1067.88,683.98z"/>
				</g>
				<g>
					<path class="st2" d="M1124.62,716.61c0.99,0.59,1.32,1.86,0.73,2.86c-0.59,0.99-1.86,1.32-2.86,0.73
						c-0.99-0.59-1.32-1.86-0.73-2.86C1122.35,716.35,1123.63,716.02,1124.62,716.61z"/>
				</g>
				<g>
					<path class="st2" d="M1125.96,781.6c-0.02,1.67-1.38,3.01-3.05,2.99c-1.67-0.02-3.01-1.38-2.99-3.05
						c0.02-1.67,1.38-3.01,3.05-2.99C1124.63,778.56,1125.97,779.93,1125.96,781.6z"/>
				</g>
				<g>
					<path class="st2" d="M1068.95,814.45c-1.02,0.57-2.3,0.21-2.88-0.8c-0.57-1.02-0.21-2.3,0.8-2.88c1.02-0.57,2.3-0.21,2.88,0.8
						C1070.33,812.59,1069.97,813.88,1068.95,814.45z"/>
				</g>
				<g>
					<path class="st2" d="M1146.33,793.97c-2.36-1.4-3.15-4.44-1.75-6.8c1.4-2.36,4.44-3.15,6.8-1.75c2.36,1.4,3.15,4.44,1.75,6.8
						C1151.74,794.59,1148.69,795.37,1146.33,793.97z"/>
				</g>
				<g>
					<path class="st2" d="M1145.57,689.44c0.02-2.36,1.96-4.26,4.32-4.24c2.36,0.02,4.26,1.96,4.24,4.32
						c-0.02,2.36-1.96,4.26-4.32,4.24C1147.44,693.74,1145.55,691.8,1145.57,689.44z"/>
				</g>
				<g>
					<path class="st2" d="M1235.21,636.83c1.88-1.06,4.27-0.4,5.33,1.49c1.06,1.88,0.4,4.27-1.49,5.33s-4.27,0.4-5.33-1.49
						C1232.66,640.28,1233.33,637.89,1235.21,636.83z"/>
				</g>
				<g>
					<path class="st2" d="M1326.26,686.4c2.66,1.57,3.54,4.99,1.97,7.65c-1.57,2.66-4.99,3.54-7.65,1.97
						c-2.66-1.57-3.54-4.99-1.97-7.65S1323.61,684.83,1326.26,686.4z"/>
				</g>
				<g>
					<path class="st2" d="M1326.08,791.46c-0.02,2.02-1.67,3.64-3.69,3.62c-2.02-0.02-3.64-1.67-3.62-3.69
						c0.02-2.02,1.67-3.64,3.69-3.62C1324.48,787.79,1326.1,789.44,1326.08,791.46z"/>
				</g>
				<g>
					<path class="st2" d="M1237.55,844.93c-2.36,1.33-5.35,0.5-6.68-1.86c-1.33-2.36-0.5-5.35,1.86-6.68
						c2.36-1.33,5.35-0.5,6.68,1.86C1240.74,840.61,1239.91,843.6,1237.55,844.93z"/>
				</g>
				<g>
					<path class="st2" d="M1119.9,612.74c-1.5-0.88-2-2.82-1.11-4.32c0.89-1.5,2.82-2,4.32-1.11c1.5,0.88,2,2.82,1.11,4.32
						C1123.33,613.13,1121.4,613.63,1119.9,612.74z"/>
				</g>
				<g>
					<path class="st2" d="M1118.97,550.21c0.02-1.73,1.43-3.11,3.16-3.09c1.73,0.02,3.11,1.43,3.09,3.16
						c-0.02,1.73-1.43,3.11-3.16,3.09C1120.34,553.35,1118.95,551.94,1118.97,550.21z"/>
				</g>
				<g>
					<path class="st2" d="M1173.09,518.96c1.05-0.59,2.38-0.22,2.97,0.83c0.59,1.05,0.22,2.38-0.83,2.97
						c-1.05,0.59-2.38,0.22-2.97-0.83C1171.67,520.89,1172.04,519.56,1173.09,518.96z"/>
				</g>
				<g>
					<path class="st2" d="M1227.25,548.55c1.5,0.89,2,2.83,1.12,4.33c-0.89,1.5-2.83,2-4.33,1.12s-2-2.83-1.12-4.33
						C1223.81,548.16,1225.75,547.66,1227.25,548.55z"/>
				</g>
				<g>
					<path class="st2" d="M1226.96,611.08c-0.01,1.05-0.87,1.9-1.93,1.89c-1.05-0.01-1.9-0.87-1.89-1.93
						c0.01-1.05,0.87-1.9,1.93-1.89C1226.12,609.16,1226.97,610.02,1226.96,611.08z"/>
				</g>
				<g>
					<path class="st2" d="M1174.56,643.25c-1.55,0.88-3.52,0.33-4.4-1.23c-0.88-1.55-0.33-3.52,1.23-4.4
						c1.55-0.88,3.52-0.33,4.4,1.23C1176.67,640.4,1176.12,642.37,1174.56,643.25z"/>
				</g>
				<g>
					<path class="st2" d="M1134.39,557.93c-0.6-0.36-0.8-1.13-0.45-1.74c0.36-0.6,1.13-0.8,1.74-0.45c0.6,0.36,0.8,1.13,0.45,1.74
						C1135.77,558.09,1135,558.29,1134.39,557.93z"/>
				</g>
				<g>
					<path class="st2" d="M1133.37,513.99c0.01-1.16,0.96-2.09,2.12-2.08c1.16,0.01,2.09,0.96,2.08,2.12
						c-0.01,1.16-0.96,2.09-2.12,2.08C1134.29,516.1,1133.36,515.15,1133.37,513.99z"/>
				</g>
				<g>
					<path class="st2" d="M1172.02,491.64c0.73-0.41,1.66-0.15,2.07,0.58c0.41,0.73,0.15,1.66-0.58,2.07s-1.66,0.15-2.07-0.58
						C1171.03,492.98,1171.29,492.05,1172.02,491.64z"/>
				</g>
				<g>
					<path class="st2" d="M1210.77,512.85c1.05,0.62,1.4,1.97,0.78,3.02c-0.62,1.05-1.97,1.39-3.02,0.78
						c-1.05-0.62-1.39-1.97-0.78-3.02C1208.37,512.58,1209.72,512.23,1210.77,512.85z"/>
				</g>
				<g>
					<path class="st2" d="M1210.96,557.59c-0.01,0.96-0.8,1.73-1.76,1.72c-0.96-0.01-1.73-0.8-1.72-1.76
						c0.01-0.96,0.8-1.73,1.76-1.72C1210.2,555.85,1210.97,556.64,1210.96,557.59z"/>
				</g>
				<g>
					<path class="st2" d="M1172.84,580.27c-0.91,0.51-2.06,0.19-2.57-0.72c-0.51-0.91-0.19-2.06,0.72-2.57
						c0.91-0.51,2.06-0.19,2.57,0.72C1174.07,578.6,1173.75,579.75,1172.84,580.27z"/>
				</g>
				<g>
					<path class="st2" d="M1173.39,460.9c-0.85-0.5-1.14-1.6-0.63-2.46c0.5-0.85,1.6-1.14,2.46-0.63c0.85,0.5,1.14,1.6,0.63,2.46
						C1175.34,461.12,1174.24,461.41,1173.39,460.9z"/>
				</g>
				<g>
					<path class="st2" d="M1173.25,416.52c0.01-0.81,0.68-1.47,1.49-1.46c0.81,0.01,1.47,0.68,1.46,1.49
						c-0.01,0.81-0.68,1.47-1.49,1.46C1173.9,418,1173.24,417.33,1173.25,416.52z"/>
				</g>
				<g>
					<path class="st2" d="M1211.12,393.86c0.89-0.5,2.03-0.19,2.53,0.71c0.5,0.89,0.19,2.03-0.71,2.53
						c-0.89,0.5-2.03,0.19-2.53-0.71C1209.91,395.5,1210.22,394.37,1211.12,393.86z"/>
				</g>
				<g>
					<path class="st2" d="M1249.8,415.76c0.83,0.49,1.11,1.57,0.62,2.4c-0.49,0.83-1.57,1.11-2.4,0.62
						c-0.83-0.49-1.11-1.57-0.62-2.4C1247.89,415.54,1248.97,415.27,1249.8,415.76z"/>
				</g>
				<g>
					<path class="st2" d="M1250.13,460.11c-0.01,0.91-0.75,1.64-1.66,1.63c-0.91-0.01-1.64-0.75-1.63-1.66
						c0.01-0.91,0.75-1.64,1.66-1.63C1249.41,458.46,1250.14,459.21,1250.13,460.11z"/>
				</g>
				<g>
					<path class="st2" d="M1211.78,482.2c-0.59,0.33-1.33,0.12-1.66-0.46c-0.33-0.59-0.12-1.33,0.46-1.66
						c0.59-0.33,1.33-0.12,1.66,0.46C1212.57,481.13,1212.36,481.87,1211.78,482.2z"/>
				</g>
				<g>
					<path class="st2" d="M879.04,846.86c-1.63-0.97-2.18-3.07-1.21-4.71c0.97-1.63,3.07-2.18,4.71-1.21
						c1.63,0.97,2.18,3.07,1.21,4.71C882.78,847.29,880.67,847.83,879.04,846.86z"/>
				</g>
				<g>
					<path class="st2" d="M878.33,777.87c0.02-1.72,1.42-3.1,3.14-3.08c1.72,0.02,3.1,1.42,3.08,3.14c-0.02,1.72-1.42,3.1-3.14,3.08
						C879.69,780.99,878.32,779.58,878.33,777.87z"/>
				</g>
				<g>
					<path class="st2" d="M937.59,743.07c1.32-0.74,2.99-0.28,3.74,1.04c0.74,1.32,0.28,2.99-1.04,3.74
						c-1.32,0.74-2.99,0.28-3.74-1.04C935.8,745.49,936.27,743.82,937.59,743.07z"/>
				</g>
				<g>
					<path class="st2" d="M997.24,776.55c1.37,0.81,1.82,2.58,1.02,3.94s-2.58,1.82-3.94,1.02c-1.37-0.81-1.82-2.58-1.02-3.94
						C994.1,776.2,995.87,775.74,997.24,776.55z"/>
				</g>
				<g>
					<path class="st2" d="M997.68,845.07c-0.01,1.41-1.17,2.55-2.59,2.54c-1.41-0.01-2.55-1.17-2.54-2.59
						c0.01-1.41,1.17-2.55,2.59-2.54C996.56,842.49,997.69,843.65,997.68,845.07z"/>
				</g>
				<g>
					<path class="st2" d="M939.21,880.3c-1.56,0.88-3.53,0.33-4.41-1.23c-0.88-1.56-0.33-3.53,1.23-4.41
						c1.56-0.88,3.53-0.33,4.41,1.23C941.32,877.44,940.77,879.42,939.21,880.3z"/>
				</g>
				<g>
					<path class="st2" d="M856.16,800.98c-0.84-0.5-1.12-1.58-0.62-2.42c0.5-0.84,1.58-1.12,2.42-0.62c0.84,0.5,1.12,1.58,0.62,2.42
						C858.09,801.2,857.01,801.48,856.16,800.98z"/>
				</g>
				<g>
					<path class="st2" d="M856.05,761.93c0.01-0.77,0.63-1.38,1.4-1.37c0.77,0.01,1.38,0.63,1.37,1.4c-0.01,0.77-0.63,1.38-1.4,1.37
						C856.66,763.32,856.04,762.7,856.05,761.93z"/>
				</g>
				<g>
					<path class="st2" d="M889.48,742.39c0.62-0.35,1.41-0.13,1.76,0.49c0.35,0.62,0.13,1.41-0.49,1.76
						c-0.62,0.35-1.41,0.13-1.76-0.49C888.64,743.52,888.86,742.74,889.48,742.39z"/>
				</g>
				<g>
					<path class="st2" d="M923.21,761.24c0.75,0.44,1,1.41,0.55,2.15c-0.44,0.75-1.41,1-2.15,0.55c-0.75-0.44-1-1.41-0.55-2.15
						C921.5,761.04,922.47,760.79,923.21,761.24z"/>
				</g>
				<g>
					<path class="st2" d="M923.29,800.12c-0.01,0.69-0.57,1.24-1.26,1.23c-0.69-0.01-1.24-0.57-1.23-1.26
						c0.01-0.69,0.57-1.24,1.26-1.23C922.74,798.87,923.29,799.43,923.29,800.12z"/>
				</g>
				<g>
					<path class="st2" d="M890.37,820.32c-0.99,0.56-2.24,0.21-2.79-0.78c-0.56-0.99-0.21-2.24,0.78-2.79
						c0.99-0.56,2.24-0.21,2.79,0.78C891.71,818.52,891.36,819.77,890.37,820.32z"/>
				</g>
				<g>
					<path class="st2" d="M827.81,513.72c-1.63-0.96-2.17-3.06-1.21-4.69c0.96-1.63,3.06-2.17,4.69-1.21
						c1.63,0.96,2.17,3.06,1.21,4.69C831.53,514.14,829.44,514.68,827.81,513.72z"/>
				</g>
				<g>
					<path class="st2" d="M826.49,442.07c0.02-2.07,1.71-3.72,3.78-3.7c2.07,0.02,3.72,1.71,3.7,3.78c-0.02,2.07-1.71,3.72-3.78,3.7
						C828.13,445.83,826.47,444.13,826.49,442.07z"/>
				</g>
				<g>
					<path class="st2" d="M888.68,405.96c1.33-0.75,3.01-0.28,3.76,1.05c0.75,1.33,0.28,3.01-1.05,3.76
						c-1.33,0.75-3.01,0.28-3.76-1.05C886.88,408.39,887.35,406.71,888.68,405.96z"/>
				</g>
				<g>
					<path class="st2" d="M950.52,440.98c1.27,0.75,1.7,2.39,0.94,3.67c-0.75,1.27-2.39,1.7-3.67,0.94
						c-1.27-0.75-1.7-2.39-0.94-3.67C947.61,440.65,949.25,440.23,950.52,440.98z"/>
				</g>
				<g>
					<path class="st2" d="M950.92,511.98c-0.01,1.35-1.12,2.43-2.47,2.42c-1.35-0.01-2.43-1.12-2.42-2.47
						c0.01-1.35,1.12-2.43,2.47-2.42C949.85,509.52,950.94,510.63,950.92,511.98z"/>
				</g>
				<g>
					<path class="st2" d="M889.87,547.82c-1.17,0.66-2.66,0.25-3.32-0.93c-0.66-1.17-0.25-2.66,0.93-3.32
						c1.17-0.66,2.66-0.25,3.32,0.93C891.46,545.67,891.04,547.16,889.87,547.82z"/>
				</g>
				<g>
					<path class="st2" d="M765.35,673.52c-1.89-1.11-2.51-3.55-1.4-5.43c1.11-1.89,3.55-2.51,5.43-1.4c1.89,1.11,2.51,3.55,1.4,5.43
						C769.66,674,767.23,674.63,765.35,673.52z"/>
				</g>
				<g>
					<path class="st2" d="M761.96,552.31c0.04-3.63,3.01-6.54,6.63-6.5c3.63,0.04,6.54,3.01,6.5,6.63c-0.04,3.63-3.01,6.54-6.63,6.5
						C764.84,558.91,761.93,555.94,761.96,552.31z"/>
				</g>
				<g>
					<path class="st2" d="M868.27,489.55c2.75-1.55,6.23-0.58,7.78,2.17c1.55,2.75,0.58,6.23-2.17,7.78
						c-2.75,1.55-6.23,0.58-7.78-2.17C864.55,494.58,865.52,491.1,868.27,489.55z"/>
				</g>
				<g>
					<path class="st2" d="M975.11,549.89c2.49,1.47,3.32,4.68,1.85,7.17c-1.47,2.49-4.68,3.32-7.17,1.85
						c-2.49-1.47-3.32-4.68-1.85-7.17C969.4,549.25,972.62,548.42,975.11,549.89z"/>
				</g>
				<g>
					<path class="st2" d="M977.02,672.18c-0.03,3.18-2.63,5.73-5.81,5.7c-3.18-0.03-5.73-2.63-5.7-5.81
						c0.03-3.18,2.63-5.73,5.81-5.7C974.51,666.4,977.06,669.01,977.02,672.18z"/>
				</g>
				<g>
					<path class="st2" d="M870.68,733.42c-1.9,1.07-4.31,0.4-5.39-1.5c-1.07-1.9-0.4-4.31,1.5-5.39c1.9-1.07,4.31-0.4,5.39,1.5
						C873.25,729.94,872.58,732.35,870.68,733.42z"/>
				</g>
				<g>
					<path class="st2" d="M753.69,677.1c-0.75-0.44-0.99-1.4-0.55-2.15c0.44-0.75,1.4-0.99,2.15-0.55c0.75,0.44,0.99,1.4,0.55,2.15
						C755.4,677.29,754.44,677.54,753.69,677.1z"/>
				</g>
				<g>
					<path class="st2" d="M752.24,624.76c0.02-1.52,1.26-2.74,2.78-2.73c1.52,0.02,2.74,1.26,2.73,2.78
						c-0.02,1.52-1.26,2.74-2.78,2.73C753.45,627.52,752.23,626.28,752.24,624.76z"/>
				</g>
				<g>
					<path class="st2" d="M798.34,597.89c1.02-0.58,2.32-0.22,2.9,0.81c0.58,1.02,0.22,2.32-0.81,2.9c-1.02,0.58-2.32,0.22-2.9-0.81
						C796.95,599.76,797.31,598.47,798.34,597.89z"/>
				</g>
				<g>
					<path class="st2" d="M844.59,623.4c1.25,0.74,1.66,2.35,0.92,3.59c-0.74,1.25-2.35,1.66-3.59,0.92
						c-1.25-0.74-1.66-2.35-0.92-3.59C841.74,623.08,843.35,622.67,844.59,623.4z"/>
				</g>
				<g>
					<path class="st2" d="M845.01,676.64c-0.01,1.25-1.03,2.25-2.28,2.24c-1.25-0.01-2.25-1.03-2.24-2.28
						c0.01-1.25,1.03-2.25,2.28-2.24C844.02,674.37,845.03,675.4,845.01,676.64z"/>
				</g>
				<g>
					<path class="st2" d="M799.12,703c-0.74,0.42-1.67,0.16-2.09-0.58c-0.42-0.74-0.16-1.67,0.58-2.09
						c0.74-0.42,1.67-0.16,2.09,0.58C800.12,701.65,799.86,702.58,799.12,703z"/>
				</g>
				<g>
					<path class="st2" d="M657,613.42c-0.54-0.32-0.73-1.02-0.4-1.57c0.32-0.54,1.02-0.73,1.57-0.4c0.54,0.32,0.73,1.02,0.4,1.57
						C658.25,613.57,657.54,613.75,657,613.42z"/>
				</g>
				<g>
					<path class="st2" d="M656.43,576.52c0.01-0.84,0.69-1.51,1.53-1.5c0.84,0.01,1.51,0.69,1.5,1.53c-0.01,0.84-0.69,1.51-1.53,1.5
						S656.42,577.35,656.43,576.52z"/>
				</g>
				<g>
					<path class="st2" d="M688.25,557.17c0.95-0.53,2.15-0.2,2.68,0.75c0.53,0.95,0.2,2.15-0.75,2.68c-0.95,0.53-2.15,0.2-2.68-0.75
						C686.97,558.91,687.3,557.71,688.25,557.17z"/>
				</g>
				<g>
					<path class="st2" d="M720.97,575.72c0.79,0.46,1.05,1.48,0.58,2.27c-0.47,0.79-1.48,1.05-2.27,0.58
						c-0.79-0.46-1.05-1.48-0.58-2.27C719.17,575.52,720.19,575.26,720.97,575.72z"/>
				</g>
				<g>
					<path class="st2" d="M721.35,613.07c-0.01,0.87-0.72,1.56-1.59,1.56c-0.87-0.01-1.56-0.72-1.56-1.59
						c0.01-0.87,0.72-1.56,1.59-1.56C720.66,611.49,721.35,612.21,721.35,613.07z"/>
				</g>
				<g>
					<path class="st2" d="M689.06,631.69c-0.55,0.31-1.24,0.12-1.55-0.43c-0.31-0.55-0.12-1.24,0.43-1.55
						c0.55-0.31,1.24-0.12,1.55,0.43C689.8,630.69,689.61,631.38,689.06,631.69z"/>
				</g>
				<g>
					<path class="st2" d="M596.96,565.17c-0.69-0.41-0.91-1.29-0.51-1.98c0.41-0.69,1.29-0.91,1.98-0.51
						c0.69,0.41,0.91,1.29,0.51,1.98C598.54,565.35,597.65,565.58,596.96,565.17z"/>
				</g>
				<g>
					<path class="st2" d="M597.11,537.27c0-0.47,0.39-0.85,0.86-0.85c0.47,0,0.85,0.39,0.85,0.86c0,0.47-0.39,0.85-0.86,0.85
						C597.48,538.13,597.1,537.75,597.11,537.27z"/>
				</g>
				<g>
					<path class="st2" d="M620.64,523.24c0.52-0.29,1.18-0.11,1.47,0.41c0.29,0.52,0.11,1.18-0.41,1.47
						c-0.52,0.29-1.18,0.11-1.47-0.41C619.94,524.2,620.12,523.54,620.64,523.24z"/>
				</g>
				<g>
					<path class="st2" d="M644.58,536.96c0.43,0.26,0.58,0.81,0.32,1.24c-0.26,0.43-0.81,0.58-1.24,0.32
						c-0.43-0.26-0.57-0.81-0.32-1.24S644.15,536.7,644.58,536.96z"/>
				</g>
				<g>
					<path class="st2" d="M644.83,564.4c-0.01,0.54-0.45,0.97-0.99,0.97c-0.54-0.01-0.97-0.45-0.97-0.99
						c0.01-0.54,0.45-0.97,0.99-0.97C644.41,563.42,644.84,563.86,644.83,564.4z"/>
				</g>
				<g>
					<path class="st2" d="M621.11,578.31c-0.46,0.26-1.03,0.1-1.29-0.36c-0.26-0.46-0.1-1.03,0.36-1.29
						c0.46-0.26,1.03-0.1,1.29,0.36C621.73,577.48,621.56,578.05,621.11,578.31z"/>
				</g>
				<g>
					<path class="st2" d="M640.81,514.81c-0.53-0.31-0.71-1-0.39-1.53c0.31-0.53,1-0.71,1.53-0.39c0.53,0.31,0.71,1,0.39,1.53
						C642.03,514.95,641.35,515.12,640.81,514.81z"/>
				</g>
				<g>
					<path class="st2" d="M639.88,476.48c0.01-1.03,0.86-1.86,1.89-1.85c1.03,0.01,1.86,0.86,1.85,1.89s-0.86,1.86-1.89,1.85
						C640.7,478.36,639.87,477.52,639.88,476.48z"/>
				</g>
				<g>
					<path class="st2" d="M673.28,456.37c0.98-0.55,2.23-0.21,2.78,0.78c0.55,0.98,0.21,2.23-0.78,2.78
						c-0.98,0.55-2.23,0.21-2.78-0.78C671.95,458.17,672.29,456.93,673.28,456.37z"/>
				</g>
				<g>
					<path class="st2" d="M707.11,476c0.63,0.37,0.84,1.19,0.47,1.82c-0.37,0.63-1.19,0.84-1.82,0.47
						c-0.63-0.37-0.84-1.19-0.47-1.82C705.66,475.84,706.48,475.63,707.11,476z"/>
				</g>
				<g>
					<path class="st2" d="M707.19,514.5c-0.01,0.62-0.52,1.12-1.14,1.12c-0.62-0.01-1.12-0.52-1.12-1.14
						c0.01-0.62,0.52-1.12,1.14-1.12C706.7,513.37,707.2,513.88,707.19,514.5z"/>
				</g>
				<g>
					<path class="st2" d="M674.37,534.31c-0.81,0.46-1.84,0.17-2.29-0.64c-0.46-0.81-0.17-1.84,0.64-2.29
						c0.81-0.46,1.84-0.17,2.29,0.64C675.46,532.82,675.18,533.85,674.37,534.31z"/>
				</g>
				<g>
					<path class="st2" d="M545.66,450.13c-0.63,0.36-0.86,1.16-0.5,1.79c0.36,0.63,1.16,0.86,1.79,0.5c0.63-0.36,0.86-1.16,0.5-1.79
						C547.09,449.99,546.29,449.77,545.66,450.13z"/>
				</g>
				<g>
					<path class="st2" d="M544.4,485.25c-0.01,0.86,0.69,1.57,1.55,1.58c0.86,0.01,1.57-0.69,1.58-1.55
						c0.01-0.86-0.69-1.57-1.55-1.58C545.12,483.69,544.41,484.39,544.4,485.25z"/>
				</g>
				<g>
					<path class="st2" d="M574.38,504c0.8,0.47,1.83,0.21,2.3-0.59c0.47-0.8,0.21-1.83-0.59-2.3c-0.8-0.47-1.83-0.21-2.3,0.59
						C573.31,502.5,573.58,503.53,574.38,504z"/>
				</g>
				<g>
					<path class="st2" d="M605.62,487.23c0.76-0.43,1.03-1.39,0.6-2.15c-0.43-0.76-1.39-1.03-2.15-0.6
						c-0.76,0.43-1.03,1.39-0.6,2.15C603.9,487.39,604.86,487.65,605.62,487.23z"/>
				</g>
				<g>
					<path class="st2" d="M606.17,451.87c0.01-0.55-0.43-1-0.98-1c-0.55-0.01-1,0.43-1,0.98s0.43,1,0.98,1
						C605.72,452.86,606.17,452.42,606.17,451.87z"/>
				</g>
				<g>
					<path class="st2" d="M576.84,433c-0.86-0.51-1.98-0.22-2.49,0.64c-0.51,0.86-0.22,1.98,0.64,2.49
						c0.86,0.51,1.98,0.22,2.49-0.64C577.99,434.63,577.7,433.51,576.84,433z"/>
				</g>
				<g>
					<path class="st2" d="M139.59,182.42c-0.76,0.43-1.02,1.39-0.6,2.14c0.43,0.76,1.39,1.02,2.14,0.6c0.76-0.43,1.02-1.39,0.6-2.14
						C141.31,182.26,140.35,181.99,139.59,182.42z"/>
				</g>
				<g>
					<path class="st2" d="M138.67,217.77c-0.01,0.75,0.59,1.36,1.34,1.37c0.75,0.01,1.36-0.59,1.37-1.34
						c0.01-0.75-0.59-1.36-1.34-1.37C139.29,216.42,138.68,217.02,138.67,217.77z"/>
				</g>
				<g>
					<path class="st2" d="M168.35,236.68c0.89,0.53,2.04,0.23,2.56-0.66c0.52-0.89,0.23-2.04-0.66-2.56
						c-0.89-0.52-2.04-0.23-2.56,0.66C167.16,235.01,167.46,236.15,168.35,236.68z"/>
				</g>
				<g>
					<path class="st2" d="M199.75,219.86c0.83-0.47,1.12-1.51,0.65-2.34c-0.47-0.83-1.51-1.12-2.34-0.65
						c-0.83,0.47-1.12,1.51-0.65,2.34C197.88,220.04,198.93,220.33,199.75,219.86z"/>
				</g>
				<g>
					<path class="st2" d="M200.99,184.39c0.01-0.96-0.76-1.75-1.73-1.76c-0.96-0.01-1.75,0.76-1.76,1.73
						c-0.01,0.96,0.76,1.75,1.73,1.76C200.19,186.13,200.98,185.35,200.99,184.39z"/>
				</g>
				<g>
					<path class="st2" d="M170.48,166.22c-0.47-0.28-1.09-0.12-1.37,0.35c-0.28,0.47-0.12,1.09,0.35,1.37
						c0.47,0.28,1.09,0.12,1.37-0.35C171.11,167.12,170.96,166.5,170.48,166.22z"/>
				</g>
				<g>
					<path class="st2" d="M1017.02,843.22c-1.12-0.66-1.5-2.11-0.83-3.24c0.66-1.12,2.11-1.5,3.24-0.83
						c1.12,0.66,1.5,2.11,0.83,3.24C1019.6,843.52,1018.15,843.89,1017.02,843.22z"/>
				</g>
				<g>
					<path class="st2" d="M1016.64,796.74c0.01-1.12,0.93-2.02,2.04-2c1.12,0.01,2.02,0.93,2,2.04c-0.01,1.12-0.93,2.02-2.04,2
						C1017.53,798.77,1016.63,797.86,1016.64,796.74z"/>
				</g>
				<g>
					<path class="st2" d="M1056.74,773.82c0.61-0.34,1.38-0.13,1.73,0.48c0.34,0.61,0.13,1.38-0.48,1.73
						c-0.61,0.34-1.38,0.13-1.73-0.48C1055.92,774.94,1056.13,774.16,1056.74,773.82z"/>
				</g>
				<g>
					<path class="st2" d="M1096.78,795.56c1.09,0.64,1.45,2.04,0.8,3.13c-0.64,1.09-2.04,1.45-3.13,0.8
						c-1.09-0.64-1.45-2.04-0.8-3.13S1095.7,794.92,1096.78,795.56z"/>
				</g>
				<g>
					<path class="st2" d="M1097.29,841.97c-0.01,1.16-0.96,2.1-2.13,2.09c-1.16-0.01-2.1-0.96-2.09-2.13
						c0.01-1.16,0.96-2.1,2.13-2.09S1097.3,840.81,1097.29,841.97z"/>
				</g>
				<g>
					<path class="st2" d="M1057.12,864.91c-0.62,0.35-1.41,0.13-1.76-0.49c-0.35-0.62-0.13-1.41,0.49-1.76
						c0.62-0.35,1.41-0.13,1.76,0.49C1057.96,863.77,1057.74,864.56,1057.12,864.91z"/>
				</g>
				<g>
					<path class="st2" d="M1122.09,910.91c-1.64-0.97-2.19-3.09-1.22-4.73c0.97-1.64,3.09-2.19,4.73-1.22
						c1.64,0.97,2.19,3.09,1.22,4.73C1125.85,911.34,1123.73,911.88,1122.09,910.91z"/>
				</g>
				<g>
					<path class="st2" d="M1122.11,830.54c0.01-1.38,1.14-2.49,2.53-2.48c1.38,0.01,2.49,1.14,2.48,2.53
						c-0.01,1.38-1.14,2.49-2.53,2.48C1123.21,833.05,1122.1,831.92,1122.11,830.54z"/>
				</g>
				<g>
					<path class="st2" d="M1189.95,788.88c2.02-1.14,4.58-0.43,5.72,1.59c1.14,2.02,0.43,4.58-1.59,5.72
						c-2.02,1.14-4.58,0.43-5.72-1.59C1187.22,792.58,1187.93,790.02,1189.95,788.88z"/>
				</g>
				<g>
					<path class="st2" d="M1259.86,829.83c1.14,0.67,1.52,2.14,0.84,3.28s-2.14,1.52-3.28,0.84c-1.14-0.67-1.52-2.14-0.84-3.28
						C1257.25,829.53,1258.72,829.16,1259.86,829.83z"/>
				</g>
				<g>
					<path class="st2" d="M1261.51,909.31c-0.02,2.01-1.66,3.62-3.67,3.6c-2.01-0.02-3.62-1.66-3.6-3.67
						c0.02-2.01,1.66-3.62,3.67-3.6C1259.92,905.66,1261.53,907.31,1261.51,909.31z"/>
				</g>
				<g>
					<path class="st2" d="M1191.87,949.76c-1.36,0.77-3.09,0.29-3.85-1.07c-0.77-1.36-0.29-3.09,1.07-3.85
						c1.36-0.77,3.09-0.29,3.85,1.07C1193.71,947.27,1193.23,949,1191.87,949.76z"/>
				</g>
				<g>
					<path class="st2" d="M447.62,435.72c-1.03,0.58-1.39,1.88-0.81,2.9c0.58,1.03,1.88,1.39,2.9,0.81c1.03-0.58,1.39-1.88,0.81-2.9
						C449.95,435.51,448.65,435.14,447.62,435.72z"/>
				</g>
				<g>
					<path class="st2" d="M445.84,483.68c-0.01,1.31,1.04,2.38,2.35,2.39c1.31,0.01,2.38-1.04,2.39-2.35
						c0.01-1.31-1.04-2.38-2.35-2.39S445.86,482.38,445.84,483.68z"/>
				</g>
				<g>
					<path class="st2" d="M486.9,508.93c0.97,0.57,2.22,0.25,2.79-0.72c0.57-0.97,0.25-2.22-0.72-2.79
						c-0.97-0.57-2.22-0.25-2.79,0.72C485.61,507.1,485.93,508.35,486.9,508.93z"/>
				</g>
				<g>
					<path class="st2" d="M528.95,485.99c0.82-0.46,1.11-1.51,0.65-2.33c-0.46-0.82-1.51-1.11-2.33-0.65
						c-0.82,0.46-1.11,1.51-0.65,2.33C527.09,486.17,528.13,486.46,528.95,485.99z"/>
				</g>
				<g>
					<path class="st2" d="M529.97,438.39c0.01-0.77-0.61-1.41-1.39-1.41c-0.77-0.01-1.41,0.61-1.41,1.39
						c-0.01,0.77,0.61,1.41,1.39,1.41C529.33,439.78,529.96,439.16,529.97,438.39z"/>
				</g>
				<g>
					<path class="st2" d="M489.52,413.77c-0.63-0.37-1.44-0.16-1.81,0.47c-0.37,0.63-0.16,1.44,0.47,1.81
						c0.63,0.37,1.44,0.16,1.81-0.47C490.36,414.95,490.15,414.14,489.52,413.77z"/>
				</g>
				<g>
					<path class="st2" d="M711.32,559.24c-1.26-0.75-1.68-2.38-0.94-3.64s2.38-1.68,3.64-0.94c1.26,0.75,1.68,2.38,0.94,3.64
						C714.22,559.56,712.59,559.98,711.32,559.24z"/>
				</g>
				<g>
					<path class="st2" d="M711,494.08c0.01-1.27,1.05-2.29,2.32-2.28c1.27,0.01,2.29,1.05,2.28,2.32c-0.01,1.27-1.05,2.29-2.32,2.28
						C712.01,496.39,710.99,495.35,711,494.08z"/>
				</g>
				<g>
					<path class="st2" d="M766.88,461.16c1.14-0.64,2.58-0.24,3.22,0.9c0.64,1.14,0.24,2.58-0.9,3.22c-1.14,0.64-2.58,0.24-3.22-0.9
						C765.34,463.24,765.74,461.8,766.88,461.16z"/>
				</g>
				<g>
					<path class="st2" d="M823.67,492.63c1.41,0.83,1.88,2.66,1.05,4.07c-0.83,1.41-2.66,1.88-4.07,1.05
						c-1.41-0.83-1.88-2.66-1.05-4.07C820.43,492.26,822.25,491.79,823.67,492.63z"/>
				</g>
				<g>
					<path class="st2" d="M823.3,558.05c-0.01,0.98-0.81,1.76-1.79,1.75c-0.98-0.01-1.76-0.81-1.75-1.79
						c0.01-0.98,0.81-1.76,1.79-1.75C822.53,556.27,823.31,557.07,823.3,558.05z"/>
				</g>
				<g>
					<path class="st2" d="M767.86,590.81c-1.05,0.59-2.38,0.22-2.97-0.83c-0.59-1.05-0.22-2.38,0.83-2.97
						c1.05-0.59,2.38-0.22,2.97,0.83C769.28,588.89,768.91,590.22,767.86,590.81z"/>
				</g>
				<g>
					<path class="st2" d="M672.73,511.32c-1.17-0.69-1.56-2.2-0.87-3.37c0.69-1.17,2.2-1.56,3.37-0.87c1.17,0.69,1.56,2.2,0.87,3.37
						C675.41,511.63,673.9,512.01,672.73,511.32z"/>
				</g>
				<g>
					<path class="st2" d="M672.15,464.42c0.01-1.26,1.04-2.26,2.3-2.25c1.26,0.01,2.26,1.04,2.25,2.3c-0.01,1.26-1.04,2.26-2.3,2.25
						C673.15,466.71,672.14,465.68,672.15,464.42z"/>
				</g>
				<g>
					<path class="st2" d="M712.21,440.32c1.18-0.66,2.67-0.25,3.34,0.93c0.66,1.18,0.25,2.67-0.93,3.34
						c-1.18,0.66-2.67,0.25-3.34-0.93C710.62,442.48,711.03,440.98,712.21,440.32z"/>
				</g>
				<g>
					<path class="st2" d="M753.17,463.15c1.14,0.67,1.52,2.14,0.84,3.28c-0.67,1.14-2.14,1.52-3.28,0.84
						c-1.14-0.67-1.52-2.14-0.84-3.28C750.56,462.86,752.03,462.48,753.17,463.15z"/>
				</g>
				<g>
					<path class="st2" d="M752.87,509.99c-0.01,0.75-0.62,1.35-1.37,1.34c-0.75-0.01-1.35-0.62-1.34-1.37
						c0.01-0.75,0.62-1.35,1.37-1.34C752.27,508.63,752.87,509.24,752.87,509.99z"/>
				</g>
				<g>
					<path class="st2" d="M713.63,533.94c-1.08,0.61-2.46,0.23-3.07-0.86c-0.61-1.08-0.23-2.46,0.86-3.07
						c1.08-0.61,2.46-0.23,3.07,0.86C715.1,531.95,714.72,533.32,713.63,533.94z"/>
				</g>
				<g>
					<path class="st2" d="M999.82,727.19c-1.6-0.95-2.14-3.02-1.19-4.62c0.95-1.6,3.01-2.14,4.62-1.19c1.6,0.95,2.14,3.01,1.19,4.62
						S1001.43,728.14,999.82,727.19z"/>
				</g>
				<g>
					<path class="st2" d="M998.24,649.03c0.02-2.23,1.85-4.03,4.09-4.01c2.23,0.02,4.03,1.85,4.01,4.09
						c-0.02,2.23-1.85,4.03-4.09,4.01C1000.01,653.09,998.22,651.26,998.24,649.03z"/>
				</g>
				<g>
					<path class="st2" d="M1066.32,609.48c1.45-0.82,3.29-0.31,4.11,1.15s0.31,3.29-1.15,4.11c-1.45,0.82-3.29,0.31-4.11-1.15
						C1064.35,612.14,1064.86,610.3,1066.32,609.48z"/>
				</g>
				<g>
					<path class="st2" d="M1133.93,648.05c1.28,0.75,1.7,2.4,0.95,3.67c-0.75,1.28-2.4,1.7-3.67,0.95c-1.28-0.75-1.7-2.4-0.95-3.67
						C1131.01,647.72,1132.65,647.3,1133.93,648.05z"/>
				</g>
				<g>
					<path class="st2" d="M1134.99,725.61c-0.02,1.75-1.45,3.16-3.21,3.15c-1.75-0.02-3.16-1.45-3.15-3.21
						c0.02-1.75,1.45-3.16,3.21-3.15C1133.6,722.42,1135.01,723.86,1134.99,725.61z"/>
				</g>
				<g>
					<path class="st2" d="M1067.62,764.88c-1.29,0.73-2.93,0.27-3.66-1.02c-0.73-1.29-0.27-2.93,1.02-3.66
						c1.29-0.73,2.93-0.27,3.66,1.02C1069.37,762.52,1068.91,764.15,1067.62,764.88z"/>
				</g>
				<g>
					<path class="st2" d="M989.01,555.01c-2.09-1.24-2.79-3.94-1.55-6.03c1.24-2.09,3.94-2.79,6.03-1.55
						c2.09,1.24,2.79,3.94,1.55,6.03C993.8,555.55,991.1,556.25,989.01,555.01z"/>
				</g>
				<g>
					<path class="st2" d="M987.93,459.11c0.02-2.34,1.94-4.21,4.27-4.19c2.34,0.02,4.21,1.94,4.19,4.27
						c-0.02,2.34-1.94,4.21-4.27,4.19C989.78,463.36,987.91,461.45,987.93,459.11z"/>
				</g>
				<g>
					<path class="st2" d="M1070.07,409.87c2.23-1.26,5.06-0.47,6.31,1.76c1.26,2.23,0.47,5.06-1.76,6.31
						c-2.23,1.26-5.06,0.47-6.31-1.76C1067.06,413.96,1067.84,411.13,1070.07,409.87z"/>
				</g>
				<g>
					<path class="st2" d="M1153.82,457.02c2.05,1.21,2.74,3.86,1.52,5.92c-1.21,2.05-3.86,2.74-5.92,1.52
						c-2.05-1.21-2.74-3.86-1.52-5.92C1149.12,456.49,1151.77,455.8,1153.82,457.02z"/>
				</g>
				<g>
					<path class="st2" d="M1154.67,552.84c-0.02,2.19-1.81,3.94-4,3.92c-2.19-0.02-3.94-1.81-3.92-4c0.02-2.19,1.81-3.95,4-3.92
						C1152.94,548.86,1154.69,550.65,1154.67,552.84z"/>
				</g>
				<g>
					<path class="st2" d="M1071.91,600.5c-1.36,0.77-3.08,0.29-3.84-1.07s-0.29-3.08,1.07-3.84c1.36-0.77,3.08-0.29,3.84,1.07
						C1073.74,598.02,1073.26,599.74,1071.91,600.5z"/>
				</g>
			</g>
			<g class="st3">
				<g>
					<line class="st4" x1="65.36" y1="44.56" x2="23.47" y2="19.82"/>
					<line class="st4" x1="64.88" y1="93.22" x2="65.36" y2="44.56"/>
					<line class="st4" x1="22.5" y1="117.12" x2="64.88" y2="93.22"/>
					<line class="st4" x1="-19.39" y1="92.38" x2="22.5" y2="117.12"/>
					<line class="st4" x1="-18.91" y1="43.73" x2="-19.39" y2="92.38"/>
					<line class="st4" x1="23.47" y1="19.82" x2="-18.91" y2="43.73"/>
				</g>
				<g>
					<line class="st5" x1="267.71" y1="453.54" x2="207.58" y2="418.03"/>
					<line class="st5" x1="267.01" y1="523.37" x2="267.71" y2="453.54"/>
					<line class="st5" x1="206.2" y1="557.68" x2="267.01" y2="523.37"/>
					<line class="st5" x1="146.07" y1="522.17" x2="206.2" y2="557.68"/>
					<line class="st5" x1="146.77" y1="452.34" x2="146.07" y2="522.17"/>
					<line class="st5" x1="207.58" y1="418.03" x2="146.77" y2="452.34"/>
				</g>
				<g>
					<line class="st5" x1="406.22" y1="256.34" x2="346.09" y2="220.83"/>
					<line class="st5" x1="405.52" y1="326.17" x2="406.22" y2="256.34"/>
					<line class="st5" x1="344.7" y1="360.48" x2="405.52" y2="326.17"/>
					<line class="st5" x1="284.58" y1="324.97" x2="344.7" y2="360.48"/>
					<line class="st5" x1="285.27" y1="255.14" x2="284.58" y2="324.97"/>
					<line class="st5" x1="346.09" y1="220.83" x2="285.27" y2="255.14"/>
				</g>
				<g>
					<line class="st6" x1="464.44" y1="300.98" x2="423.43" y2="276.76"/>
					<line class="st6" x1="463.97" y1="348.61" x2="464.44" y2="300.98"/>
					<line class="st6" x1="422.49" y1="372.01" x2="463.97" y2="348.61"/>
					<line class="st6" x1="381.48" y1="347.79" x2="422.49" y2="372.01"/>
					<line class="st6" x1="381.95" y1="300.16" x2="381.48" y2="347.79"/>
					<line class="st6" x1="423.43" y1="276.76" x2="381.95" y2="300.16"/>
				</g>
				<g>
					<line class="st7" x1="-7.15" y1="138.19" x2="-55.12" y2="109.85"/>
					<line class="st7" x1="-7.7" y1="193.9" x2="-7.15" y2="138.19"/>
					<line class="st7" x1="-56.23" y1="221.28" x2="-7.7" y2="193.9"/>
					<line class="st7" x1="-104.2" y1="192.94" x2="-56.23" y2="221.28"/>
					<line class="st7" x1="-103.65" y1="137.23" x2="-104.2" y2="192.94"/>
					<line class="st7" x1="-55.12" y1="109.85" x2="-103.65" y2="137.23"/>
				</g>
				<g>
					<line class="st8" x1="438.14" y1="461.82" x2="398.95" y2="438.67"/>
					<line class="st8" x1="437.69" y1="507.33" x2="438.14" y2="461.82"/>
					<line class="st8" x1="398.05" y1="529.7" x2="437.69" y2="507.33"/>
					<line class="st8" x1="358.85" y1="506.55" x2="398.05" y2="529.7"/>
					<line class="st8" x1="359.3" y1="461.03" x2="358.85" y2="506.55"/>
					<line class="st8" x1="398.95" y1="438.67" x2="359.3" y2="461.03"/>
				</g>
				<g>
					<line class="st9" x1="92.81" y1="236.42" x2="26.95" y2="197.51"/>
					<line class="st9" x1="92.05" y1="312.91" x2="92.81" y2="236.42"/>
					<line class="st9" x1="25.43" y1="350.49" x2="92.05" y2="312.91"/>
					<line class="st9" x1="-40.43" y1="311.59" x2="25.43" y2="350.49"/>
					<line class="st9" x1="-39.67" y1="235.1" x2="-40.43" y2="311.59"/>
					<line class="st9" x1="26.95" y1="197.51" x2="-39.67" y2="235.1"/>
				</g>
			</g>
			<g class="st10">
				<g>
					<line class="st11" x1="248.23" y1="314.24" x2="117.01" y2="236.72"/>
					<line class="st11" x1="246.72" y1="466.64" x2="248.23" y2="314.24"/>
					<line class="st11" x1="113.98" y1="541.53" x2="246.72" y2="466.64"/>
					<line class="st11" x1="-17.25" y1="464.01" x2="113.98" y2="541.53"/>
					<line class="st11" x1="-15.74" y1="311.61" x2="-17.25" y2="464.01"/>
					<line class="st11" x1="117.01" y1="236.72" x2="-15.74" y2="311.61"/>
				</g>
				<g>
					<line class="st12" x1="115.73" y1="121.79" x2="41.58" y2="77.98"/>
					<line class="st12" x1="114.88" y1="207.91" x2="115.73" y2="121.79"/>
					<line class="st12" x1="39.87" y1="250.23" x2="114.88" y2="207.91"/>
					<line class="st12" x1="-34.29" y1="206.43" x2="39.87" y2="250.23"/>
					<line class="st12" x1="-33.43" y1="120.3" x2="-34.29" y2="206.43"/>
					<line class="st12" x1="41.58" y1="77.98" x2="-33.43" y2="120.3"/>
				</g>
				<g>
					<line class="st13" x1="320.84" y1="287.68" x2="225.94" y2="231.62"/>
					<line class="st13" x1="319.74" y1="397.88" x2="320.84" y2="287.68"/>
					<line class="st13" x1="223.75" y1="452.04" x2="319.74" y2="397.88"/>
					<line class="st13" x1="128.86" y1="395.99" x2="223.75" y2="452.04"/>
					<line class="st13" x1="129.95" y1="285.78" x2="128.86" y2="395.99"/>
					<line class="st13" x1="225.94" y1="231.62" x2="129.95" y2="285.78"/>
				</g>
				<g>
					<line class="st14" x1="551.03" y1="507.23" x2="484.5" y2="467.93"/>
					<line class="st14" x1="551.03" y1="507.23" x2="550.27" y2="584.5"/>
					<line class="st14" x1="482.97" y1="622.47" x2="550.27" y2="584.5"/>
					<line class="st14" x1="416.43" y1="583.17" x2="482.97" y2="622.47"/>
					<line class="st14" x1="417.2" y1="505.9" x2="416.43" y2="583.17"/>
					<line class="st14" x1="484.5" y1="467.93" x2="417.2" y2="505.9"/>
				</g>
				<g>
					<line class="st15" x1="413.76" y1="413.99" x2="346.52" y2="374.27"/>
					<line class="st15" x1="412.99" y1="492.08" x2="413.76" y2="413.99"/>
					<line class="st15" x1="344.97" y1="530.45" x2="412.99" y2="492.08"/>
					<line class="st15" x1="277.73" y1="490.73" x2="344.97" y2="530.45"/>
					<line class="st15" x1="278.51" y1="412.65" x2="277.73" y2="490.73"/>
					<line class="st15" x1="346.52" y1="374.27" x2="278.51" y2="412.65"/>
				</g>
				<g>
					<line class="st16" x1="103.28" y1="412.41" x2="22.66" y2="364.79"/>
					<line class="st16" x1="102.35" y1="506.04" x2="103.28" y2="412.41"/>
					<line class="st16" x1="20.8" y1="552.04" x2="102.35" y2="506.04"/>
					<line class="st16" x1="-59.81" y1="504.42" x2="20.8" y2="552.04"/>
					<line class="st16" x1="-58.88" y1="410.8" x2="-59.81" y2="504.42"/>
					<line class="st16" x1="22.66" y1="364.79" x2="-58.88" y2="410.8"/>
				</g>
			</g>
			<g class="st17">
				<g>
					<line class="st18" x1="452.26" y1="367.28" x2="414.45" y2="344.95"/>
					<line class="st18" x1="451.82" y1="411.19" x2="452.26" y2="367.28"/>
					<line class="st18" x1="413.58" y1="432.77" x2="451.82" y2="411.19"/>
					<line class="st18" x1="375.76" y1="410.44" x2="413.58" y2="432.77"/>
					<line class="st18" x1="376.2" y1="366.52" x2="375.76" y2="410.44"/>
					<line class="st18" x1="414.45" y1="344.95" x2="376.2" y2="366.52"/>
				</g>
				<g>
					<line class="st19" x1="140.37" y1="183.79" x2="169.97" y2="167.08"/>
					<line class="st19" x1="140.03" y1="217.78" x2="140.37" y2="183.79"/>
					<line class="st19" x1="169.3" y1="235.07" x2="140.03" y2="217.78"/>
					<line class="st19" x1="198.91" y1="218.37" x2="169.3" y2="235.07"/>
					<line class="st19" x1="199.25" y1="184.37" x2="198.91" y2="218.37"/>
					<line class="st19" x1="169.97" y1="167.08" x2="199.25" y2="184.37"/>
				</g>
				<g>
					<line class="st14" x1="448.67" y1="437.58" x2="488.85" y2="414.91"/>
					<line class="st14" x1="448.21" y1="483.71" x2="448.67" y2="437.58"/>
					<line class="st14" x1="487.93" y1="507.17" x2="448.21" y2="483.71"/>
					<line class="st14" x1="528.11" y1="484.5" x2="487.93" y2="507.17"/>
					<line class="st14" x1="528.57" y1="438.37" x2="528.11" y2="484.5"/>
					<line class="st14" x1="488.85" y1="414.91" x2="528.57" y2="438.37"/>
				</g>
			</g>
			<g class="st3">
				<g>
					<line class="st20" x1="1013.52" y1="780.48" x2="1067.91" y2="812.61"/>
					<line class="st20" x1="1014.15" y1="717.32" x2="1013.52" y2="780.48"/>
					<line class="st20" x1="1069.17" y1="686.28" x2="1014.15" y2="717.32"/>
					<line class="st20" x1="1123.56" y1="718.4" x2="1069.17" y2="686.28"/>
					<line class="st20" x1="1122.93" y1="781.57" x2="1123.56" y2="718.4"/>
					<line class="st20" x1="1067.91" y1="812.61" x2="1122.93" y2="781.57"/>
				</g>
				<g>
					<line class="st21" x1="1121.5" y1="610.03" x2="1172.98" y2="640.43"/>
					<line class="st21" x1="1122.09" y1="550.24" x2="1121.5" y2="610.03"/>
					<line class="st21" x1="1174.17" y1="520.86" x2="1122.09" y2="550.24"/>
					<line class="st21" x1="1225.64" y1="551.27" x2="1174.17" y2="520.86"/>
					<line class="st21" x1="1225.05" y1="611.06" x2="1225.64" y2="551.27"/>
					<line class="st21" x1="1172.98" y1="640.43" x2="1225.05" y2="611.06"/>
				</g>
				<g>
					<line class="st22" x1="880.79" y1="843.91" x2="937.62" y2="877.48"/>
					<line class="st22" x1="881.44" y1="777.9" x2="880.79" y2="843.91"/>
					<line class="st22" x1="938.94" y1="745.46" x2="881.44" y2="777.9"/>
					<line class="st22" x1="995.77" y1="779.03" x2="938.94" y2="745.46"/>
					<line class="st22" x1="995.12" y1="845.04" x2="995.77" y2="779.03"/>
					<line class="st22" x1="937.62" y1="877.48" x2="995.12" y2="845.04"/>
				</g>
				<g>
					<line class="st23" x1="829.55" y1="510.77" x2="888.67" y2="545.69"/>
					<line class="st23" x1="830.23" y1="442.11" x2="829.55" y2="510.77"/>
					<line class="st23" x1="890.04" y1="408.37" x2="830.23" y2="442.11"/>
					<line class="st23" x1="949.16" y1="443.29" x2="890.04" y2="408.37"/>
					<line class="st23" x1="948.48" y1="511.95" x2="949.16" y2="443.29"/>
					<line class="st23" x1="888.67" y1="545.69" x2="948.48" y2="511.95"/>
				</g>
				<g>
					<line class="st24" x1="712.68" y1="556.95" x2="766.79" y2="588.91"/>
					<line class="st24" x1="713.3" y1="494.1" x2="712.68" y2="556.95"/>
					<line class="st24" x1="768.04" y1="463.22" x2="713.3" y2="494.1"/>
					<line class="st24" x1="822.16" y1="495.18" x2="768.04" y2="463.22"/>
					<line class="st24" x1="821.53" y1="558.03" x2="822.16" y2="495.18"/>
					<line class="st24" x1="766.79" y1="588.91" x2="821.53" y2="558.03"/>
				</g>
			</g>
			<g class="st17">
				<g>
					<line class="st25" x1="1135.04" y1="556.84" x2="1171.92" y2="578.62"/>
					<line class="st25" x1="1135.46" y1="514.01" x2="1135.04" y2="556.84"/>
					<line class="st25" x1="1172.77" y1="492.96" x2="1135.46" y2="514.01"/>
					<line class="st25" x1="1209.65" y1="514.75" x2="1172.77" y2="492.96"/>
					<line class="st25" x1="1209.22" y1="557.58" x2="1209.65" y2="514.75"/>
					<line class="st25" x1="1171.92" y1="578.62" x2="1209.22" y2="557.58"/>
				</g>
				<g>
					<line class="st25" x1="1174.3" y1="459.36" x2="1211.18" y2="481.14"/>
					<line class="st25" x1="1174.73" y1="416.53" x2="1174.3" y2="459.36"/>
					<line class="st25" x1="1212.03" y1="395.48" x2="1174.73" y2="416.53"/>
					<line class="st25" x1="1248.91" y1="417.27" x2="1212.03" y2="395.48"/>
					<line class="st25" x1="1248.48" y1="460.1" x2="1248.91" y2="417.27"/>
					<line class="st25" x1="1211.18" y1="481.14" x2="1248.48" y2="460.1"/>
				</g>
				<g>
					<line class="st26" x1="857.06" y1="799.46" x2="889.37" y2="818.54"/>
					<line class="st26" x1="857.44" y1="761.94" x2="857.06" y2="799.46"/>
					<line class="st26" x1="890.11" y1="743.51" x2="857.44" y2="761.94"/>
					<line class="st26" x1="922.41" y1="762.59" x2="890.11" y2="743.51"/>
					<line class="st26" x1="922.04" y1="800.1" x2="922.41" y2="762.59"/>
					<line class="st26" x1="889.37" y1="818.54" x2="922.04" y2="800.1"/>
				</g>
				<g>
					<line class="st27" x1="754.49" y1="675.74" x2="798.37" y2="701.66"/>
					<line class="st27" x1="755" y1="624.78" x2="754.49" y2="675.74"/>
					<line class="st27" x1="799.38" y1="599.74" x2="755" y2="624.78"/>
					<line class="st27" x1="843.26" y1="625.66" x2="799.38" y2="599.74"/>
					<line class="st27" x1="842.75" y1="676.62" x2="843.26" y2="625.66"/>
					<line class="st27" x1="798.37" y1="701.66" x2="842.75" y2="676.62"/>
				</g>
				<g>
					<line class="st28" x1="657.58" y1="612.44" x2="688.5" y2="630.7"/>
					<line class="st28" x1="657.94" y1="576.53" x2="657.58" y2="612.44"/>
					<line class="st28" x1="689.21" y1="558.89" x2="657.94" y2="576.53"/>
					<line class="st28" x1="720.13" y1="577.15" x2="689.21" y2="558.89"/>
					<line class="st28" x1="719.78" y1="613.06" x2="720.13" y2="577.15"/>
					<line class="st28" x1="688.5" y1="630.7" x2="719.78" y2="613.06"/>
				</g>
				<g>
					<line class="st29" x1="597.7" y1="563.93" x2="620.64" y2="577.49"/>
					<line class="st29" x1="597.96" y1="537.28" x2="597.7" y2="563.93"/>
					<line class="st29" x1="621.17" y1="524.19" x2="597.96" y2="537.28"/>
					<line class="st29" x1="644.12" y1="537.74" x2="621.17" y2="524.19"/>
					<line class="st29" x1="643.85" y1="564.39" x2="644.12" y2="537.74"/>
					<line class="st29" x1="620.64" y1="577.49" x2="643.85" y2="564.39"/>
				</g>
				<g>
					<line class="st30" x1="641.38" y1="513.85" x2="673.54" y2="532.84"/>
					<line class="st30" x1="641.75" y1="476.5" x2="641.38" y2="513.85"/>
					<line class="st30" x1="674.28" y1="458.15" x2="641.75" y2="476.5"/>
					<line class="st30" x1="706.44" y1="477.15" x2="674.28" y2="458.15"/>
					<line class="st30" x1="706.06" y1="514.49" x2="706.44" y2="477.15"/>
					<line class="st30" x1="673.54" y1="532.84" x2="706.06" y2="514.49"/>
				</g>
				<g>
					<line class="st19" x1="546.3" y1="451.27" x2="575.91" y2="434.57"/>
					<line class="st19" x1="545.96" y1="485.27" x2="546.3" y2="451.27"/>
					<line class="st19" x1="575.23" y1="502.56" x2="545.96" y2="485.27"/>
					<line class="st19" x1="604.84" y1="485.85" x2="575.23" y2="502.56"/>
					<line class="st19" x1="605.18" y1="451.86" x2="604.84" y2="485.85"/>
					<line class="st19" x1="575.91" y1="434.57" x2="605.18" y2="451.86"/>
				</g>
				<g>
					<line class="st31" x1="1018.22" y1="841.19" x2="1056.48" y2="863.79"/>
					<line class="st31" x1="1018.67" y1="796.76" x2="1018.22" y2="841.19"/>
					<line class="st31" x1="1057.36" y1="774.92" x2="1018.67" y2="796.76"/>
					<line class="st31" x1="1095.62" y1="797.52" x2="1057.36" y2="774.92"/>
					<line class="st31" x1="1095.18" y1="841.95" x2="1095.62" y2="797.52"/>
					<line class="st31" x1="1056.48" y1="863.79" x2="1095.18" y2="841.95"/>
				</g>
				<g>
					<line class="st32" x1="673.98" y1="509.21" x2="712.52" y2="531.97"/>
					<line class="st32" x1="674.43" y1="464.45" x2="673.98" y2="509.21"/>
					<line class="st32" x1="713.41" y1="442.45" x2="674.43" y2="464.45"/>
					<line class="st32" x1="751.95" y1="465.22" x2="713.41" y2="442.45"/>
					<line class="st32" x1="751.51" y1="509.98" x2="751.95" y2="465.22"/>
					<line class="st32" x1="712.52" y1="531.97" x2="751.51" y2="509.98"/>
				</g>
			</g>
			<g class="st10">
				<g>
					<line class="st33" x1="880.68" y1="668.78" x2="967.61" y2="720.13"/>
					<line class="st33" x1="881.68" y1="567.82" x2="880.68" y2="668.78"/>
					<line class="st33" x1="969.62" y1="518.21" x2="881.68" y2="567.82"/>
					<line class="st33" x1="1056.55" y1="569.56" x2="969.62" y2="518.21"/>
					<line class="st33" x1="1055.54" y1="670.52" x2="1056.55" y2="569.56"/>
					<line class="st33" x1="967.61" y1="720.13" x2="1055.54" y2="670.52"/>
				</g>
				<g>
					<line class="st34" x1="1148.85" y1="789.7" x2="1235.14" y2="840.67"/>
					<line class="st34" x1="1149.85" y1="689.48" x2="1148.85" y2="789.7"/>
					<line class="st34" x1="1237.13" y1="640.24" x2="1149.85" y2="689.48"/>
					<line class="st34" x1="1323.42" y1="691.21" x2="1237.13" y2="640.24"/>
					<line class="st34" x1="1322.43" y1="791.42" x2="1323.42" y2="691.21"/>
					<line class="st34" x1="1235.14" y1="840.67" x2="1322.43" y2="791.42"/>
				</g>
				<g>
					<line class="st35" x1="767.36" y1="670.1" x2="868.73" y2="729.98"/>
					<line class="st35" x1="768.53" y1="552.37" x2="767.36" y2="670.1"/>
					<line class="st35" x1="871.07" y1="494.52" x2="768.53" y2="552.37"/>
					<line class="st35" x1="972.44" y1="554.4" x2="871.07" y2="494.52"/>
					<line class="st35" x1="971.27" y1="672.13" x2="972.44" y2="554.4"/>
					<line class="st35" x1="868.73" y1="729.98" x2="971.27" y2="672.13"/>
				</g>
				<g>
					<line class="st36" x1="1123.85" y1="907.94" x2="1190.48" y2="947.3"/>
					<line class="st36" x1="1124.61" y1="830.56" x2="1123.85" y2="907.94"/>
					<line class="st36" x1="1192.01" y1="792.54" x2="1124.61" y2="830.56"/>
					<line class="st36" x1="1258.65" y1="831.89" x2="1192.01" y2="792.54"/>
					<line class="st36" x1="1257.88" y1="909.28" x2="1258.65" y2="831.89"/>
					<line class="st36" x1="1190.48" y1="947.3" x2="1257.88" y2="909.28"/>
				</g>
				<g>
					<line class="st37" x1="1001.54" y1="724.29" x2="1066.3" y2="762.54"/>
					<line class="st37" x1="1002.29" y1="649.07" x2="1001.54" y2="724.29"/>
					<line class="st37" x1="1067.8" y1="612.11" x2="1002.29" y2="649.07"/>
					<line class="st37" x1="1132.57" y1="650.36" x2="1067.8" y2="612.11"/>
					<line class="st37" x1="1131.82" y1="725.58" x2="1132.57" y2="650.36"/>
					<line class="st37" x1="1066.3" y1="762.54" x2="1131.82" y2="725.58"/>
				</g>
				<g>
					<line class="st38" x1="991.24" y1="551.22" x2="1070.52" y2="598.04"/>
					<line class="st38" x1="992.16" y1="459.15" x2="991.24" y2="551.22"/>
					<line class="st38" x1="1072.35" y1="413.91" x2="992.16" y2="459.15"/>
					<line class="st38" x1="1151.62" y1="460.74" x2="1072.35" y2="413.91"/>
					<line class="st38" x1="1150.71" y1="552.8" x2="1151.62" y2="460.74"/>
					<line class="st38" x1="1070.52" y1="598.04" x2="1150.71" y2="552.8"/>
				</g>
			</g>
			<g>
				<g>
					<path class="st2" d="M1057.46,733.15c-1.19-1.63-0.84-3.92,0.79-5.11c1.63-1.19,3.92-0.84,5.11,0.79
						c1.19,1.63,0.84,3.92-0.79,5.11C1060.95,735.14,1058.66,734.78,1057.46,733.15z"/>
				</g>
				<g>
					<path class="st2" d="M1044.83,623.13c0.95-2.15,3.46-3.13,5.61-2.18c2.15,0.95,3.13,3.46,2.18,5.61
						c-0.95,2.15-3.46,3.13-5.61,2.18C1044.86,627.8,1043.88,625.28,1044.83,623.13z"/>
				</g>
				<g>
					<path class="st2" d="M1149.96,626.39c1.43-0.16,2.71,0.88,2.87,2.31c0.16,1.43-0.88,2.71-2.31,2.87
						c-1.43,0.16-2.71-0.88-2.87-2.31S1148.54,626.54,1149.96,626.39z"/>
				</g>
				<g>
					<path class="st2" d="M1186.26,744.03c1.18,1.61,0.83,3.86-0.78,5.04c-1.61,1.18-3.86,0.83-5.04-0.78
						c-1.18-1.61-0.83-3.86,0.78-5.04C1182.83,742.07,1185.08,742.42,1186.26,744.03z"/>
				</g>
				<g>
					<path class="st2" d="M1186.03,810.78c-0.86,1.94-3.13,2.83-5.07,1.97c-1.94-0.86-2.83-3.13-1.97-5.07
						c0.86-1.94,3.13-2.83,5.07-1.97C1186.01,806.56,1186.89,808.83,1186.03,810.78z"/>
				</g>
				<g>
					<path class="st2" d="M1121.17,816.7c-3.44,0.38-6.53-2.11-6.9-5.55c-0.38-3.44,2.11-6.53,5.55-6.9
						c3.44-0.38,6.53,2.11,6.9,5.55C1127.09,813.24,1124.6,816.33,1121.17,816.7z"/>
				</g>
				<g>
					<path class="st2" d="M686.53,560.98c-1.23-1.68-0.87-4.05,0.81-5.28c1.68-1.23,4.05-0.87,5.28,0.81
						c1.23,1.68,0.87,4.05-0.81,5.28C690.13,563.03,687.76,562.66,686.53,560.98z"/>
				</g>
				<g>
					<path class="st2" d="M659.59,509.23c1.07-2.43,3.9-3.53,6.33-2.46c2.43,1.07,3.53,3.9,2.46,6.33c-1.07,2.43-3.9,3.53-6.33,2.46
						C659.63,514.49,658.52,511.66,659.59,509.23z"/>
				</g>
				<g>
					<path class="st2" d="M780.59,487.81c1.84-0.2,3.49,1.13,3.69,2.97s-1.13,3.49-2.97,3.69c-1.84,0.2-3.49-1.13-3.69-2.97
						C777.43,489.67,778.76,488.02,780.59,487.81z"/>
				</g>
				<g>
					<path class="st2" d="M762.5,603.24c1.37,1.86,0.96,4.48-0.9,5.85c-1.86,1.37-4.48,0.96-5.85-0.9c-1.37-1.86-0.96-4.48,0.9-5.85
						C758.51,600.97,761.13,601.37,762.5,603.24z"/>
				</g>
				<g>
					<path class="st2" d="M795.17,626.39c-0.78,1.77-2.85,2.58-4.63,1.8c-1.77-0.78-2.58-2.85-1.8-4.63
						c0.78-1.77,2.85-2.58,4.63-1.8C795.15,622.54,795.95,624.61,795.17,626.39z"/>
				</g>
				<g>
					<path class="st2" d="M741.3,672.09c-1.7,0.19-3.23-1.04-3.42-2.75c-0.19-1.7,1.04-3.23,2.75-3.42c1.7-0.19,3.23,1.04,3.42,2.75
						C744.24,670.37,743.01,671.91,741.3,672.09z"/>
				</g>
				<g>
					<path class="st2" d="M961.67,572.86c1.45-3.29,5.29-4.78,8.58-3.33c3.29,1.45,4.78,5.29,3.33,8.58
						c-1.45,3.29-5.29,4.78-8.58,3.33C961.72,579.99,960.22,576.14,961.67,572.86z"/>
				</g>
				<g>
					<path class="st2" d="M85.29,469.82c2.67,3.64,1.88,8.76-1.76,11.42c-3.64,2.67-8.75,1.88-11.42-1.76
						c-2.67-3.64-1.88-8.75,1.76-11.42C77.51,465.39,82.63,466.18,85.29,469.82z"/>
				</g>
				<g>
					<path class="st2" d="M178.35,309.8c-1.37,3.12-5.01,4.53-8.13,3.16c-3.12-1.37-4.53-5.01-3.16-8.13
						c1.37-3.12,5.01-4.53,8.13-3.16C178.31,303.04,179.72,306.68,178.35,309.8z"/>
				</g>
				<g>
					<path class="st2" d="M22.74,409.92c3.53-0.39,6.7,2.16,7.09,5.69c0.39,3.53-2.16,6.7-5.69,7.09c-3.53,0.39-6.7-2.16-7.09-5.69
						C16.66,413.48,19.21,410.31,22.74,409.92z"/>
				</g>
				<g>
					<path class="st2" d="M90.68,294.17c0.91,1.24,0.64,2.99-0.6,3.9c-1.24,0.91-2.99,0.64-3.9-0.6c-0.91-1.24-0.64-2.99,0.6-3.9
						C88.02,292.66,89.77,292.93,90.68,294.17z"/>
				</g>
				<g>
					<path class="st2" d="M95.02,389.53c-0.26,0.59-0.94,0.85-1.53,0.59c-0.59-0.26-0.85-0.94-0.59-1.53
						c0.26-0.59,0.94-0.85,1.53-0.59C95.01,388.26,95.28,388.95,95.02,389.53z"/>
				</g>
				<g>
					<path class="st2" d="M74.05,337.89c-0.62,0.07-1.19-0.38-1.26-1.01c-0.07-0.62,0.38-1.19,1.01-1.25
						c0.62-0.07,1.19,0.38,1.25,1.01C75.13,337.26,74.68,337.82,74.05,337.89z"/>
				</g>
				<g>
					<path class="st2" d="M-4.27,320.01c-0.41-0.56-0.29-1.34,0.27-1.75c0.56-0.41,1.34-0.29,1.75,0.27
						c0.41,0.56,0.29,1.34-0.27,1.75C-3.07,320.69-3.86,320.57-4.27,320.01z"/>
				</g>
				<g>
					<path class="st2" d="M44.5,304.33c0.46-1.04,1.67-1.51,2.7-1.05c1.04,0.46,1.51,1.67,1.05,2.7c-0.46,1.04-1.67,1.51-2.7,1.05
						C44.51,306.58,44.04,305.37,44.5,304.33z"/>
				</g>
				<g>
					<path class="st2" d="M116.49,270.05c0.81-0.09,1.54,0.5,1.63,1.31c0.09,0.81-0.5,1.54-1.31,1.63c-0.81,0.09-1.54-0.5-1.63-1.31
						C115.09,270.87,115.68,270.14,116.49,270.05z"/>
				</g>
				<g>
					<path class="st2" d="M947.54,688.02c1.73-0.19,2.98-1.75,2.79-3.48c-0.19-1.73-1.75-2.98-3.48-2.79
						c-1.73,0.19-2.98,1.75-2.79,3.48C944.25,686.96,945.81,688.21,947.54,688.02z"/>
				</g>
				<g>
					<path class="st2" d="M1027.5,664.86c0.34-0.77-0.01-1.66-0.78-2c-0.77-0.34-1.66,0.01-2,0.78c-0.34,0.77,0.01,1.66,0.78,2
						C1026.27,665.98,1027.16,665.63,1027.5,664.86z"/>
				</g>
				<g>
					<path class="st2" d="M1002.6,624.72c-1.18-1.61-3.44-1.96-5.05-0.78c-1.61,1.18-1.96,3.44-0.78,5.05
						c1.18,1.61,3.44,1.96,5.05,0.78C1003.43,628.59,1003.78,626.33,1002.6,624.72z"/>
				</g>
				<g>
					<path class="st2" d="M883.55,611.1c-0.87,0.1-1.5,0.88-1.41,1.75c0.1,0.87,0.88,1.5,1.75,1.41c0.87-0.1,1.5-0.88,1.41-1.75
						C885.21,611.64,884.42,611.01,883.55,611.1z"/>
				</g>
				<g>
					<path class="st2" d="M898.84,640.41c-0.72,1.63,0.02,3.54,1.65,4.26c1.63,0.72,3.54-0.02,4.26-1.65
						c0.72-1.63-0.02-3.54-1.65-4.26C901.47,638.03,899.56,638.77,898.84,640.41z"/>
				</g>
				<g>
					<path class="st2" d="M892.87,635.43c0.56,0.76,1.62,0.92,2.39,0.37c0.76-0.56,0.92-1.63,0.37-2.39
						c-0.56-0.76-1.62-0.93-2.39-0.37S892.32,634.67,892.87,635.43z"/>
				</g>
			</g>
		</g>
	</g>
</g>
</svg>