<?xml version="1.0" encoding="UTF-8"?>
<svg id="Camada_2" data-name="Camada 2" xmlns="http://www.w3.org/2000/svg" xmlns:xlink="http://www.w3.org/1999/xlink" viewBox="0 0 513.39 539.82">
  <defs>
    <style>
      .cls-1 {
        fill: #fff;
      }

      .cls-2 {
        filter: url(#drop-shadow-1);
      }

      .cls-3 {
        filter: url(#drop-shadow-2);
      }

      .cls-4 {
        fill: #2a2338;
      }
    </style>
    <filter id="drop-shadow-1" filterUnits="userSpaceOnUse">
      <feOffset dx="2" dy="5"/>
      <feGaussianBlur result="blur" stdDeviation="5"/>
      <feFlood flood-color="#000" flood-opacity=".7"/>
      <feComposite in2="blur" operator="in"/>
      <feComposite in="SourceGraphic"/>
    </filter>
    <filter id="drop-shadow-2" filterUnits="userSpaceOnUse">
      <feOffset dx="2" dy="5"/>
      <feGaussianBlur result="blur-2" stdDeviation="5"/>
      <feFlood flood-color="#000" flood-opacity=".7"/>
      <feComposite in2="blur-2" operator="in"/>
      <feComposite in="SourceGraphic"/>
    </filter>
  </defs>
  <g id="Camada_1-2" data-name="Camada 1">
    <g>
      <g class="cls-2">
        <path class="cls-4" d="m224.69,332.14c-25.85-53.54-48.51-109.64-68-168.31-19.49-58.66-32.73-109.32-39.72-151.98C115.91,4.17,121.11.22,132.54,0c15.89-.21,34.95,4.8,57.2,15.04,20.97,9.39,32.3,18.35,34,26.87v.64c9.11,76.37,25.95,150.6,50.52,222.7,46.6-68.04,84.41-136.84,113.44-206.38,5.29-12.37,22.77-25.6,52.43-39.68,23.72-11.09,41.52-16.85,53.38-17.28,4.23.21,6.14,1.39,5.72,3.52-20.13,58.67-47.4,116.47-81.82,173.43-34.43,56.95-73.03,109.86-115.82,158.7,20.54,48,42.31,89.22,65.3,123.67,22.98,34.44,43.69,58.28,62.12,71.51,1.06.85.21,1.7-2.54,2.56-9.33,3.63-21.72,3.63-37.18,0-17.37-4.05-33.05-12.59-47.03-25.59-28.81-27.09-58.26-67.52-88.34-121.27-59.53,59.72-116.93,103.35-172.22,130.87-28.39,14.08-52.64,20.9-72.77,20.48-6.35-.21-9.32-1.07-8.9-2.56,0-.43.32-.75.95-.96,36.43-20.27,73.88-48,112.33-83.19,38.45-35.2,75.57-75.51,111.37-120.95Z"/>
      </g>
      <g class="cls-3">
        <path class="cls-1" d="m238.79,332.14c-25.85-53.54-48.51-109.64-68-168.31-19.49-58.66-32.73-109.32-39.72-151.98C130.01,4.17,135.21.22,146.65,0c15.89-.21,34.95,4.8,57.2,15.04,20.97,9.39,32.3,18.35,34,26.87v.64c9.11,76.37,25.95,150.6,50.52,222.7,46.6-68.04,84.41-136.84,113.44-206.38,5.29-12.37,22.77-25.6,52.43-39.68,23.72-11.09,41.52-16.85,53.38-17.28,4.23.21,6.14,1.39,5.72,3.52-20.13,58.67-47.4,116.47-81.82,173.43-34.43,56.95-73.03,109.86-115.82,158.7,20.54,48,42.31,89.22,65.3,123.67,22.98,34.44,43.69,58.28,62.12,71.51,1.06.85.21,1.7-2.54,2.56-9.33,3.63-21.72,3.63-37.18,0-17.37-4.05-33.05-12.59-47.03-25.59-28.81-27.09-58.26-67.52-88.34-121.27-59.53,59.72-116.93,103.35-172.22,130.87-28.39,14.08-52.64,20.9-72.77,20.48-6.35-.21-9.32-1.07-8.9-2.56,0-.43.32-.75.95-.96,36.43-20.27,73.88-48,112.33-83.19,38.45-35.2,75.57-75.51,111.37-120.95Z"/>
      </g>
    </g>
  </g>
</svg>